<?xml version="1.0" encoding="utf-8"?>
<!-- Generator: Adobe Illustrator 21.1.0, SVG Export Plug-In . SVG Version: 6.00 Build 0)  -->
<svg version="1.1" id="Layer_1" xmlns="http://www.w3.org/2000/svg" xmlns:xlink="http://www.w3.org/1999/xlink" x="0px" y="0px"
	 viewBox="0 0 224.8 92.4" style="enable-background:new 0 0 224.8 92.4;" xml:space="preserve">
<g id="Icon">
	<g>
		<path d="M118.3,84.1L118.3,84.1c-0.4-0.8-0.2-1.1-0.5-2c-0.3-0.8-1-0.8-1.6-1.2c-0.3-0.2-0.6-0.7-0.9-1.2l8.7-1.2l-8.3-1.4
			c0,0,0.1-0.1,0.1-0.1c0.5-0.5,0.5-1.3,0.8-2.1c0.3-0.7,1.6-0.6,2.4-1.4c0.7-0.6,0.5-2.1,0.5-2.1c-0.6,1-0.7,1-1.4,1.4
			c-0.8,0.4-1.1,0.2-2,0.5c-0.8,0.3-0.8,1-1.2,1.6c-0.2,0.3-0.6,0.5-1,0.7l-1.4-8.6l-1.2,8.5c-0.1-0.1-0.2-0.2-0.3-0.3
			c-0.5-0.5-1.3-0.5-2.1-0.9c-0.7-0.3-0.6-1.6-1.4-2.4c-0.6-0.7-2.1-0.5-2.1-0.5c1,0.6,1,0.7,1.4,1.4c0.4,0.8,0.2,1.1,0.5,2
			c0.3,0.8,1,0.8,1.6,1.2c0.3,0.2,0.6,0.7,0.9,1.2l-8.7,1.2l8.1,1.6c-0.3,0.5-0.4,1.3-0.7,2c-0.3,0.7-1.6,0.6-2.4,1.4
			c-0.7,0.6-0.5,2.1-0.5,2.1c0.6-1,0.7-1,1.4-1.4c0.8-0.4,1.1-0.2,2-0.5c0.8-0.3,0.8-1,1.2-1.6c0.2-0.3,0.5-0.4,0.8-0.6l1.7,8.4
			l1.2-8.5c0.1,0.1,0.2,0.3,0.3,0.3c0.5,0.5,1.3,0.5,2.1,0.9c0.7,0.3,0.6,1.6,1.4,2.4c0.6,0.7,2.1,0.5,2.1,0.5
			C118.7,85.1,118.7,85,118.3,84.1z M113.9,79.8c-0.3,0.3-0.7,0.5-1.1,0.5c-0.5,0-1.1-0.1-1.5-0.5c-0.7-0.7-0.7-1.9,0-2.7
			c0.2-0.2,0.4-0.3,0.7-0.4c0.7-0.3,1.4-0.1,2,0.4l0,0C114.6,77.9,114.6,79.1,113.9,79.8z"/>
		<path d="M111.7,79.4L111.7,79.4c-0.5-0.5-0.5-1.3,0-1.8c0.5-0.5,1.3-0.5,1.8,0c0.5,0.5,0.5,1.3,0,1.8
			C113,79.9,112.2,79.9,111.7,79.4"/>
		<path d="M112.5,30c-11.3,0-20.4,9.5-20.4,21.2c0,8.3,4.6,15.4,11.2,19c-4.5-3.3-7.5-8.8-7.5-15.2c0-10.1,7.5-18.2,16.8-18.2
			S129.5,45,129.5,55c0,6-2.7,11.3-6.8,14.6C128.8,66,133,59.1,133,51.2C133,39.5,123.8,30,112.5,30"/>
	</g>
</g>
</svg>
