<svg xmlns="http://www.w3.org/2000/svg" viewBox="0 0 443.85 168.63"><title>Asset 1</title><g id="Layer_2" data-name="Layer 2"><g id="Layer_1-2" data-name="Layer 1"><path d="M442.06,133.81a3.83,3.83,0,0,1,.63,3.53,2.08,2.08,0,0,0,.09.92,9.11,9.11,0,0,1-.21,5.08c-.07.22-.24.52-.15.66.93,1.66.73,3.39.63,5.19a13.51,13.51,0,0,0,.8,3.6c-1,0-1.18.76-1.12,1.91.13,2.35.14,4.71,0,7.07a22.58,22.58,0,0,1-.74,3.57l-1.8-1.5v2.31l-3.14.63v-1.88l-.21,0-.38,1.41-1-.15c-4.9-.68-9.8-1.38-14.7-2-3.44-.46-6.88-1-10.33-1.25-2.75-.21-5.51-1-8.3-.18a2.42,2.42,0,0,1-1.14-.16c-1.26-.3-2.5-.71-3.77-.92s-2.56-.12-3.82-.34a1.89,1.89,0,0,0-2.34,1.42,9.37,9.37,0,0,1-.75,1.27l-.9-1.87a7.34,7.34,0,0,0-.66,1.47,5.76,5.76,0,0,1-7.57,4.84c-.1-1.65-.23-3.31-.31-5,0-.83-.35-1.29-1.24-1.19a1.19,1.19,0,0,1-.36,0c-3.07-.6-6.13-1.35-9.22-1.78-2.89-.4-5.69-1.61-8.69-1.09a1,1,0,0,0-.68.47,3.12,3.12,0,0,0-.4,1.37c.05,2.18-1.72,3-3,4.11a1.55,1.55,0,0,1-1.52-.12c-.63-.72-1.93-1.22-1.24-2.65.08-.16-.55-.95-.88-1a60.44,60.44,0,0,1-9.51-1.74,54.69,54.69,0,0,0-6.8-.77c-1.73-.15-3.47-.24-5.2-.26a1.47,1.47,0,0,0-1,.64c-.51.78-.72,1.88-1.39,2.4a6.13,6.13,0,0,1-3.2,1.29c-2,.1-2.11-.16-2.17-2.25,0-.23,0-.47,0-.49-3.18-1.53-6.71-1.41-10-2.74-.4.51-.95.18-1.48-.4a3.92,3.92,0,0,0-2.5-1.14,33.34,33.34,0,0,1-5.08-1.33c-1.22-.38-2,0-2.3,1.17a2.48,2.48,0,0,1-2.53,1.93,2.51,2.51,0,0,1-2.59-1.47,4.58,4.58,0,0,0-2.44-1.82c-2.25-.66-4.58-1.06-6.89-1.51a2.91,2.91,0,0,0-1,.11,11.7,11.7,0,0,0-1.91-1.09,35.77,35.77,0,0,0-5.05-1.47,7.09,7.09,0,0,0-2.86.4c-1.19.31-2.25,1.07-3.53,1.14a.85.85,0,0,0-.49.3c-1.21,1.32-2.77,1.65-4.48,1.91a13.37,13.37,0,0,0-3.72,1.53c-3.22,1.6-6.74,2.15-10.19,2.93a6,6,0,0,0-.82.18c-2,.77-4.13.22-6.19.47-.75.09-1.5.13-2.24.22a24.89,24.89,0,0,1-2.84.36c-5.32,0-10.64,0-16-.1a53.27,53.27,0,0,1-5.66-.77,9.67,9.67,0,0,0-1.29,0h-2.58l-.49.54-.34-.12c-2.15-.83-4.33-1.59-6.42-2.53-.56-.25-.86-1.06-1.29-1.61l.25-.25,1,.1.06-.3-1.91-.4c0,.57.16,1.14,0,1.31a1.59,1.59,0,0,1-1.22.23,34.82,34.82,0,0,1-5.89-1.41,33.21,33.21,0,0,0-6.94-1.7,33.78,33.78,0,0,1-5.23-1.18,7.42,7.42,0,0,0-6.43.45c-1.24.69-2.84.69-4.23,1.15-3.82,1.27-7.68,2.45-11.38,4-5.3,2.21-10.62,4-16.47,4a34.71,34.71,0,0,1-14.93-2.85,13,13,0,0,1-6.55-5.88c-.44-.85-1-1.64-1.42-2.5a1.64,1.64,0,0,1-.05-1.26c.47-.93.15-1.56-.71-1.77-1.4-.35-1.67-1.34-1.91-2.54-.65-3.36-1.38-6.7-2.11-10-.25-1.15.3-2,1-2.93l.45,1.65h2.19c.35,1-1.19,2,.14,3.08l.59-1.74a2.94,2.94,0,0,1,1.44,4.53c-.09.13-.19.25-.29.38-1.13,1.5-1,1.38.46,2.46a19,19,0,0,1,2.77,2.87c.42.47.77,1,1.17,1.49,1.44,1.71,2.91,3.4,4.35,5.12.33.39.59.85,1,1.45l1.06-1.47a6.63,6.63,0,0,1-1.76-1.19c-1.23-1.68-2.35-3.43-3.42-5.21-.12-.2.35-1.08.55-1.08a1.73,1.73,0,0,1,1.27.59c2.55,3.67,6,6.43,9.42,9.18a4.93,4.93,0,0,0,1.39.53l.16-.41c-.68-.46-1.37-.9-2-1.38a31.33,31.33,0,0,1-6.79-7.38c-.2-.28,0-.86,0-1.3l.59-.17c.52.7,1,1.4,1.57,2.09s.83,1.36,1.44,1.7c3,1.68,6,3.24,9.07,4.83a5.56,5.56,0,0,0,1,.31l.14-.27a11.17,11.17,0,0,0-1.13-.59,19.13,19.13,0,0,1-7.3-5.7c-.2-.22-.14-.67-.19-1,.32,0,.69-.11.94,0a25,25,0,0,1,2.21,1.38c1.43,1,2.85,2,4.38,2.81-.53-1.44-2.11-2.41-1.41-4.19a2.48,2.48,0,0,1,2.66,1c2.47,2.85,6,3.9,9.26,5.31a1.47,1.47,0,0,0,.53,0l.11-.3c-1-.47-1.91-1-2.91-1.4a9.69,9.69,0,0,1-5.49-5.25c2.68-1.56,4,1.32,6,1.72L157.32,143a4,4,0,0,1,4.33.27c1.63,1,3.26,2,4.93,2.94a5,5,0,0,0,1.51.29l.15-.46a10.2,10.2,0,0,0-1.71-.68,2.59,2.59,0,0,1-2.32-1.78,1.17,1.17,0,0,0-.69-.62c-.64-.21-1.31-.32-2.08-.49l.41-.79a3.66,3.66,0,0,1-2.59-4.28c3.63,1,5.92,4.37,9.34,5.74l.21-.31c-1.08-1.32-2.15-2.64-3.25-3.94a1.2,1.2,0,0,0-.71-.41c-1.34-.13-1.67-1.18-2.21-2.32,2.16.31,4.06.6,5.64,2.18a29.36,29.36,0,0,0,4.21,3.1c.15.1.5-.08,1-.2-3.88-1.88-6.25-5-8.56-8.29a11.8,11.8,0,0,1,2,.41,17.28,17.28,0,0,1,2.68,1.32,4.28,4.28,0,0,1,1,1.09c.31.39.51,1,.91,1.18,2,.88,4,1.65,6.1,2.48l-.88-2.21c-2,.33-3.6-.81-5.08-2.23-1.32-1.27-2.63-2.54-2.8-4.52a4.38,4.38,0,0,1,3.55,1.31,24.62,24.62,0,0,0,8.49,4.67l-.92-1.28,1-1.58a6.4,6.4,0,0,0-1.87,0,2.7,2.7,0,0,1-3.07-.74c-1.6-1.62-3.17-3.27-4.66-5-.36-.41-.3-1.18-.44-1.78l.45-.26a23,23,0,0,1,2.1,1.81,12,12,0,0,0,5.88,3.73c-1.56-1.64-3.31-3.42-5-5.28-.35-.39-.35-1.1-.51-1.66a5.64,5.64,0,0,1,1.83.35c2.05,1.21,4,2.56,6.06,3.8a23.19,23.19,0,0,0,2.66,1.36c1.51.67,3,1.29,4.77,2,.17-.22.58-.69.92-1.2.1-.15,0-.42,0-.63-.22,0-.53-.08-.64,0-1,1-1.71.42-2.64-.13-1.08-.65-2.32-1-3.46-1.58a9.41,9.41,0,0,1-2.07-1.3c-1.64-1.45-3.22-3-4.82-4.48-.29-.27-.68-.51-.83-.85a1.47,1.47,0,0,1,0-1.11c.1-.21.57-.36.86-.34,1.07.07,2,.43,2,1.73,2.66-.35,3.38,2.75,5.84,3a11.4,11.4,0,0,1-.65-2.08,6.66,6.66,0,0,1,.25-1.77,7.56,7.56,0,0,1,1.82.39c1.49.73,2.93,1.57,4.38,2.38a6.51,6.51,0,0,1,1.6,1,2.26,2.26,0,0,1,.72,1.54c-.12.81-.92.86-1.64.76s-1.74-.25-2.62-.33a9,9,0,0,0-1.34.08l-.07.45c.47.1.95.21,1.42.29,1,.19,2.07.4,3.12.53a1.3,1.3,0,0,0,1-.24c2.4-3,4.87-5.94,7.06-9.09.68-1,.65-2.46,2.07-2.93-.07-.16-.08-.26-.12-.28-2.16-.77-2.22-.81-1.14-2.93.92-1.81,2-3.56,3-5.28a4.67,4.67,0,0,0,.49-4.09,8,8,0,0,0-3.33-5,10.43,10.43,0,0,0-1.69-.75,6,6,0,0,1-1.42-.54,1.07,1.07,0,0,0-1.79.34,28.87,28.87,0,0,0-4.09,9.91,3.05,3.05,0,0,0,1.41,2.88c-.14-.56-.3-1.12-.42-1.68a4.16,4.16,0,0,1,2.8-4.94.91.91,0,0,1,.75.12.81.81,0,0,1,.1.72,27.26,27.26,0,0,0-1.07,3.17l5-6.13c1,.31,1,.74.69,1.41-.56,1.1-1.08,2.23-1.53,3.38-.24.6-.29,1.28-.59,1.58l-2,2,.42.72,3.07-.14c-1.71,1.38-1.33,3.05-1.38,4.71a2.73,2.73,0,0,1-2.33,2.9l.5,1c-2.25,2.37-7.21,1.75-8.89-1a14.92,14.92,0,0,0-2.65-3,1.91,1.91,0,0,1-.53-2.73l1.31-2.22a22.84,22.84,0,0,0,2.08,3c1.51,1.56,3.14,3,4.77,4.44.2.18.7,0,1.12-.12-3.12-2-4.93-5.06-6.93-8.12l1.75-.46-.82-1.1-1.38.82a6,6,0,0,1-.79-1.52c-.34-1.75-.57-3.52-.91-5.75-.93,1-1.67,1.71-2.31,2.52-.13.16.07.66.23,1,.67,1.27,1.4,2.51,2.07,3.79.48.91.26,2-.49,2.27-.93.3-1.5-.23-1.85-1.05s-.76-1.84-1.17-2.74-1-1.17-1.81-.33c0,1.49,2.14,2.94-.13,4.67l-1.53-2.45a.79.79,0,0,0-.31.17q-4.37,3.36-8.74,6.74c-1.84,1.43-1.88,1.57-1.23,3.84.28,1,.59,2,.88,3-1.05.6-1.42.46-1.75-.61l-.93-3c-.21,0-.33-.08-.36,0-2.22,2.58-5.78,3.07-8.25,5.27a1.88,1.88,0,0,1-2.72-.08,2.17,2.17,0,0,0-.68-.28l-.2.27,1.4.94L142.62,129c-.61.18-1.24.3-1.85.49a3.46,3.46,0,0,1-2.73,0,4.09,4.09,0,0,0-2.3.15,22.58,22.58,0,0,0-2.62.84c-2,.71-3.89.06-5.81-.5-2.29-.67-4.65-1.12-7-1.73a3.31,3.31,0,0,1-1.39-.85,2.1,2.1,0,0,0-2.46-.62,4.1,4.1,0,0,1-2.09,0,9.92,9.92,0,0,1-4.86-2.92c-.69-.67-1.38-1.33-2-2a6.64,6.64,0,0,1-.68-1.14l1.45-.51a18.66,18.66,0,0,0-1.63-1.1c-2.85-1.52-5.17-3.48-5.93-6.81a3,3,0,0,1,4.16.89,23.45,23.45,0,0,0,2.7,2.52,1.29,1.29,0,0,0,.88.21c1.55-.15,2.49.65,3.39,1.82a58.5,58.5,0,0,0,4.46,5.11c.3.31,1.2,0,1.66,0-.8-.87-1.38-2-2.28-2.38-1.67-.75-2.28-2.29-3.29-3.53a4,4,0,0,1-.43-1.34c.55,0,1.26-.29,1.62,0,1.27.89,2.35,2.06,3.63,2.94,2.29,1.59,4.65,3.08,7,4.56a3.94,3.94,0,0,0,1.46.23l.12-.41c-.78-.42-1.57-.85-2.35-1.26-1-.5-1.9-1-2.88-1.46a3.52,3.52,0,0,1-2.14-2.21c-.27-.83-1.08-1.46-1.56-2.24a17.46,17.46,0,0,1-.92-2l.46-.33,8.29,6.71a4.21,4.21,0,0,0-1.32-3.32,2.12,2.12,0,0,1-.35-2.64c.81.72,1,2.23,2.61,2,0,1.33.77,1.6,1.94,1.67a6.94,6.94,0,0,1,2.47,1,21.14,21.14,0,0,0,2.14,1.13c-.59-1.87-3.45-2-3.18-4.69a11.71,11.71,0,0,1,2.43.81c2.36,1.42,4.65,3,7,4.44.34.22.72.39,1.09.59L137.39,117l-1.07.29c-.9-.82-1.62-1.54-2.42-2.17-1.23-1,.07-1.68.08-2.53l10.21,6.84.22-1.83c-2.63,0-3.28-2.74-5.2-3.75-.18-.1-.16-.83,0-1.19a1,1,0,0,1,.82-.44,5.68,5.68,0,0,1,1.65,1c.6.51,1,1.26,1.65,1.7,2.6,1.78,5.25,3.49,7.88,5.22l1.51,1,.2-.32-5-3.22c1.39-1.25,2.49-1.39,3.95-.52,1.23.74,2.41,1.58,3.68,2.25a7.76,7.76,0,0,0,2.74.73,4.55,4.55,0,0,0-3.09-2,6.43,6.43,0,0,1-4-2.45c-.68-.75-1.41-1.45-2.2-2.26.39-1.67,1.64-2.17,3.19-1,1,.74,2.3,1.2,2.7,2.6,0,.12.24.2.37.27,1.36.67,2.7,1.38,4.09,2a18.37,18.37,0,0,0,2.23.68l.2-.39a10.85,10.85,0,0,0-1.25-.76c-1.11-.49-2.26-.88-3.36-1.4-.61-.29-1.12-.78-1.71-1.1a2.38,2.38,0,0,1-1.26-1.44c-.16-.49-.83-.82-1.3-1.2s-1.09-.62-1.4-1.08c-.83-1.26-1.54-2.6-2.28-3.9,1.49-1.06,2-1,2.94.3.47.65.95,1,1.71.25-.48-1.25-2.7-1.84-1.36-3.83-2.65-.32-1.81-3.09-3.24-4.43l-3,1.65c-.23-.47-.44-.93-.68-1.37a1.85,1.85,0,0,0-2.59-.88,11,11,0,0,1-3.14.62c-2.15.08-4.33-.16-6.47,0a89.69,89.69,0,0,1-10.66.63,32.43,32.43,0,0,1-10.14-1.53,4.31,4.31,0,0,0-1.29-.24c-3.16-.11-5.85-1.49-8.43-3.14-.34-.22-.51-.72-.84-1.22a1,1,0,0,1-.57.13c-1.3-.31-2.6-.68-3.88-1.05a3.59,3.59,0,0,1-1.31-.55,63.76,63.76,0,0,1-5.54-4.94,11.44,11.44,0,0,1-1.75-3.59,16.14,16.14,0,0,1-.54-2.45c-1.17-.09-1.85-1.33-2.51-2.56a8.79,8.79,0,0,1-1-5.32c.08-.62.11-1.1-.54-1.52a2.55,2.55,0,0,1-.71-1.33,6.72,6.72,0,0,1-.39-1.87c0-.7,0-1.94.27-2a9.72,9.72,0,0,1,3-.08c.1,0,.23.61.22.93a19.34,19.34,0,0,0,1.45,8.2,10.52,10.52,0,0,0,2.18,3v-3l.56-.18,1.75,2.86,1.66-1.82c1.66,1,1.68,1.26.18,3.26.38,0,.68,0,1-.07A1.24,1.24,0,0,1,97,80.48c.3,2.1,1.78,3.18,3.48,4.14L100,81.14c1.61.7,2.2,2,3,3.09a37.34,37.34,0,0,0,2.47,3,9.73,9.73,0,0,1,2.19-1c1-.16,1.31.71,1.72,1.41,1,1.72,2,3.44,3.07,5.21l-1.37,1,3.08.17a8.27,8.27,0,0,1-.29-1.34c0-.6,0-1.21.07-1.82l1.55.08c.11,0,.22,0,.49.08-.37-.93.07-2.06-1.21-2.53-.16-.06-.19-.73-.14-1.1.09-.67.29-1.32.45-2.05,2.69,1.58,4.21,4.21,6.37,6.27-.54-1.53-1.85-3-.65-4.83a6.13,6.13,0,0,1,3.18,3.35,3.17,3.17,0,0,0,2.5,1.89c-1-1.63-1.85-3.06-2.67-4.52a4.28,4.28,0,0,1-.61-1.64c-.08-.88.82-1.39,1.43-.78a32.48,32.48,0,0,1,3,3.65c.2.28,0,.83,0,1.4l1.94-.16c-.33-.37-.46-.62-.66-.73-1.14-.65-1.09-1.71-.87-2.74.08-.36.61-.89.92-.88a1.44,1.44,0,0,1,1.11.78c.49,1.93,2.05,3,3.27,4.35.2.22.61.26.93.38l.24-.22a10.52,10.52,0,0,0-.68-1.41,17.79,17.79,0,0,1-1.61-2.23,14,14,0,0,1-.83-3,.82.82,0,0,1,.45-.66.89.89,0,0,1,.77.25c1.34,1.59,2.66,3.19,4,4.81.43.53.77,1.16,1.86.75-2.21-2.39-2.66-5.39-3.09-8.45l2.23,3c.65.86,1.31,1.72,1.94,2.59.48.65,1.29,1.26.08,2.33,2.23-1.33,3,.7,4.44,1.24-.38-.44-.76-.89-1.15-1.33-.53-.6-1.05-1.21-1.62-1.77a3,3,0,0,1-.86-3.83,2.9,2.9,0,0,1,3.17,1.12c1.14,1.48,2.42,2.85,3.44,4L151,87.6c-.21-.34-.5-.77-.75-1.23-.93-1.66-1.88-3.31-2.74-5-.16-.31.06-.81.11-1.22l.4,0c.92,1,1.8,2.11,2.75,3.11,1.12,1.17,2.27,2.32,3.48,3.39s2.37,1.9,3.57,2.83a2.06,2.06,0,0,0,2.85,0c2.92-2.66,5.77-5.39,8.8-8.23A32.15,32.15,0,0,1,166,80.08a6.09,6.09,0,0,1-2.07-1.51c-1-1.14-1.84-2.41-2.73-3.64-1.8-2.49-2.08-7.19-.62-10.06-.57-.76-1-.59-1.57.09a4.4,4.4,0,0,0-1,3.24c0,.47,0,.95.07,1.48l-1.16.19-1.54-4.28c-.49.56-.91.86-1.07,1.26A35.73,35.73,0,0,0,153,70.67c-.22.78-.55,1-1.4.61l.31-4.68a2.36,2.36,0,0,0-2.41.19,14.59,14.59,0,0,1-2.69.85,14.13,14.13,0,0,0-1.49.72,5.94,5.94,0,0,0-.57-.27c-.92-.37-1.61-.25-2,.83-.4,1.24-.88,2.45-1.33,3.67l-.52,0a19.49,19.49,0,0,1-.32-2.32c0-1.23.46-2.56-1.16-3.28-.62-.28-1.08-.62-1.71-.07a3.44,3.44,0,0,1-1,.41l-.62-1.19c-6.35.74-11.48-1.81-16.26-5.65l-.06.95a12.08,12.08,0,0,0-1.86,0,14.53,14.53,0,0,0-1.54.54,4.56,4.56,0,0,1-1.49.26,13,13,0,0,0-8.77,2.09,4.85,4.85,0,0,1-2.28.45c-.86.07-1.74,0-2.69,0-.45-.71-.31-1.44.76-1.88,2.39-1,4.86-1.77,7.26-2.73a9.34,9.34,0,0,0,3-1.61c2.6-2.45,3.59-2.58,6.53-.2-.72-1.51-.68-3-1.91-4a3.23,3.23,0,0,1-.74-2.16c-.06-1.68.08-3.36.14-5a1.65,1.65,0,0,1,.3-.94,7,7,0,0,1,.88,1.54,4.88,4.88,0,0,0,6.32,3.31,9.23,9.23,0,0,1,2.6-.26c2.6-.09,5.19-.13,7.79-.23a3.13,3.13,0,0,0,1.5-.36,9.87,9.87,0,0,1,4.35-1.85c.21,0,.45-.42.55-.68a3.59,3.59,0,0,0-.63-3.71c-.84-1-1.75-2-2.65-2.93a1.43,1.43,0,0,0-.61-.3c-1-.31-2-.66-3-.9a3.59,3.59,0,0,0-1.91-.15c-1.9.72-3.74,1.46-5.76.18l.44.78c-2.1.76-4.13,1.57-6.2,2.23-1.31.42-2.61.76-3.33,2.09-1.23-.64-1.94-1.43-1.28-2.83-1.76-.81-3.18-.29-4.65.66-2.45,1.57-5,3-7.51,4.45a1.08,1.08,0,0,1-1-.09,1.3,1.3,0,0,1-.14-1.15,3.61,3.61,0,0,1,1.2-1.26c1.22-.76,2.51-1.4,3.75-2.12a6.4,6.4,0,0,0,.91-.78l-.1-.32a4.77,4.77,0,0,0-1.33-.11c-1.17.23-2.31.59-3.47.85a4,4,0,0,1-1.76.15c-2.11-.57-4.18-1.25-6.42-1.94l1.3-.79-.06-.2a3.27,3.27,0,0,0-.94.2,4.15,4.15,0,0,1-3.81.06c-1-.39-1.93-.76-2.87-1.2a2.41,2.41,0,0,1-1.14-.81c-.58-1.12-1.16-.92-1.94-.24a23.3,23.3,0,0,1-2,1.37,1.93,1.93,0,0,1-2.23.14,2.39,2.39,0,0,0-1.59-.13,14.84,14.84,0,0,1-7.56-.08,19,19,0,0,0-5.72-.23A39.43,39.43,0,0,1,56,37.77a80.33,80.33,0,0,0-11.2-1,5.74,5.74,0,0,1-3.38-.95,1,1,0,0,0-1.54.12,5.55,5.55,0,0,1-3.76,1.63,37.06,37.06,0,0,1-5.13.24,49.72,49.72,0,0,1-6.94-1c-1.64-.36-3.19-1.12-4.8-1.64a33.89,33.89,0,0,0-6.37-1.81c-2-.21-3.35-1.37-5-2a1.52,1.52,0,0,1-.77-.73c-.8-1.84-2.49-2.69-4-3.68A4.75,4.75,0,0,1,.77,23.43C.53,21.69.32,19.94.08,18.21a4.83,4.83,0,0,1,1.81-4.9A2.93,2.93,0,0,1,5,12.93c-.76,1.17-1.41,2.36-2.24,3.4C1.45,18,1.91,19.49,3,21.13a3.43,3.43,0,0,1,.59,1.69,1.81,1.81,0,0,0,2.73,1.76,2.21,2.21,0,0,1,1.6.31c.38.21.58.73.86,1.11l.37-.25C9.1,25.35,9,25,8.91,24.57s-.33-.81-.52-1.24c.19-.07.33-.14.48-.18,2-.56,2.06-.54,3,1.35.23.47.47.93.68,1.4.5,1.16,1.05,2,2.65,1.74,1.26-.22,2.2.77,3.06,1.63.32.32.67.61.94.86l1.1-3.6,2.83,2.17a4.77,4.77,0,0,1-.34-1.25,8.73,8.73,0,0,1,.31-2.39,1.31,1.31,0,0,1,1.16-.55c.35.08.89.7.84,1-.37,1.92,1.54,2.54,1.92,4l.28-.08v-3c2-.25,2.1-.17,2.49,1.53a2.33,2.33,0,0,0,.44.78,9.2,9.2,0,0,0,.63.71c-.29.17-.57.35-.86.5s-.36.16-.58.25c.5.72,1,1,1.82.53.63-.37.84-.69.39-1.41a2,2,0,0,1,1.94-3c.35.16.53.8.7,1.25s.35,1.19.52,1.79l.46,0A14.32,14.32,0,0,0,36,28.17c.48-1,1.22-1.19,2-.31.52.6.94,1.29,1.44,1.9a2.28,2.28,0,0,0,1,.64c0-1.22-1.27-2.21-.26-3.47l-1.26-.46,1.68-2.66L43,27.86l.45-.09a16.32,16.32,0,0,0,.15-2.38c-.12-1.59-.38-3.17-.55-4.76s.21-2.06,1.7-2.51l.11-1.34H42.08l-.19-.35c.57-.6,1-1.4,1.74-1.74S46,15.6,46,16.33a5.46,5.46,0,0,1-.47,1.8,22.08,22.08,0,0,1,.72,2.58c.3,1.85.43,3.73.77,5.58A13.77,13.77,0,0,0,48,28.86c.27.69.91,1,1.45.58a2.56,2.56,0,0,1,2.89,0,12.83,12.83,0,0,1,.25-1.91c.12-.42.4-1.06.69-1.1a1.91,1.91,0,0,1,1.47.45,21.18,21.18,0,0,1,1.78,2.4,1.88,1.88,0,0,0,.35-.14c2.29-1.52,2.35-1.51,3.86.76l.83,1.26c.14-.43.23-.73.33-1,.56-1.6,1.46-1.78,2.56-.45.75.91,1.39,1.93,2.07,2.9l.3-.15a22.68,22.68,0,0,0-1-2.15A2.39,2.39,0,0,1,66.09,27c1,.44,1.94.75,2,2.23,0,.69.83,1.35,1.35,2-.16-2-.16-2,2.22-3.39l.79.49c.5-.52,1.14-1.46,1.37-1.37a5.85,5.85,0,0,1,1.85,1.49,4.11,4.11,0,0,1,.56,1.12c2-.49,3-2,3.82-3.76l2.09,1.77c0-1,0-1.8,0-2.57-.1-2.28.34-3.28,2-4.18l2.93,7.53,2.42-1.85,2.11,4.27.87-.43A4,4,0,0,1,91.26,26c.31-.95-.41-2.22-.58-3.35-.06-.39,0-1,.22-1.19.69-.48,1,.22,1.21.69a8,8,0,0,1,.54,1.32c.39,1.2.67,2.45,1.16,3.6a27.18,27.18,0,0,0,2.58,4.68l.3-2.47,2.09,1.31.35-.08c-.11-.86-.2-1.72-.35-2.57-.07-.38-.4-.76-.36-1.11s.28-1,.58-1.13a1.31,1.31,0,0,1,1.15.5c.57.91,1,1.91,1.49,2.87a2.63,2.63,0,0,0,.82,1,24.65,24.65,0,0,1,0-3,5.3,5.3,0,0,1,.77-1.56c.46.41,1.15.74,1.35,1.26.68,1.7,1.16,3.48,1.78,5.21.2.56.48,1.3,1.08.79-.34-1.93-.67-3.64-.91-5.36-.05-.38.24-.81.37-1.21.51.21,1.24.27,1.5.65a30.83,30.83,0,0,1,1.73,3.14c.16.3.35.57.6,1,.67-2.22-1.43-4.26,0-6.47,2.39,1.89,2.41,4.94,4,7.17l-.47-5c.86-.54,1.39-.27,1.7.48.68,1.66,1.33,3.33,2,5,.19.48.33,1,.5,1.47a1.81,1.81,0,0,0,1-2.66,15.87,15.87,0,0,0-1.33-2.55c-1-1.58-1.43-3.14,0-4.81a2.92,2.92,0,0,1,1.73,2c.62,2,1.23,4,1.9,6a1.26,1.26,0,0,0,.82.77c.32,0,.68-.36,1.2-.67-1.83-.78-2.54-1.69-2.5-3s1.29-1.78,2.4-2.43l1.55,3.75a4.81,4.81,0,0,0,0-3.7,3.74,3.74,0,0,1-.47-1.34,1.42,1.42,0,0,1,.54-1.1c.48-.26.92-.06,1.18.58.57,1.43,1.25,2.8,1.88,4.2l.33-.09V19.74a8.51,8.51,0,0,1,1.71,1.21,1.54,1.54,0,0,1,.29,1.35,2.8,2.8,0,0,0,.06,3,16.64,16.64,0,0,0,2,3.05c.44-.95,1.22-1.79-.12-2.63-.29-.18-.37-1.13-.17-1.54A8.62,8.62,0,0,1,134,22.4l2.15,6.71h.31V23.46c-1.36-1.25-1.32-1.52,1-3.68.42,1.21.87,2.34,1.19,3.5s.49,2.31.71,3.39c.51-1,.77-2.27,1.54-2.91,1.48-1.24,1.73.74,2.67,1.55a7,7,0,0,0,.43-1.45c.05-1.12,0-2.24,0-3.36a1,1,0,0,1,1.23-1.11c.83,0,.76.57.73,1.18-.08,1.69.32,2.39,1.17,2.65l2.43-3.86.42.15,1.52,4.4.52,0a6.42,6.42,0,0,0,.27-1.67c-.1-.95-.45-1.87-.53-2.82,0-.48.13-1.31.43-1.43a2.27,2.27,0,0,1,1.58.31c.4.2.67.66,1,1,1.34-1.16,2.5-.83,3.72,1.26.17-.58.47-1,.36-1.35-1-2.83-.75-3.77,1.72-5.28.1-.06.21-.11.35-.17l.87,1.87c1.09-.46,1.09-1.44,1.31-2.34a4.28,4.28,0,0,1,.67-1.1,5.06,5.06,0,0,1,.87.82c.48.73.89,1.51,1.54,2.64.27-1,.49-1.73.64-2.46.34-1.68,1-2.27,2.75-2.17l.39,3.53.15,0c.09-.43.17-.87.27-1.3.16-.73.28-1.47.51-2.17a2.27,2.27,0,0,1,2.56-1.88c.79,0,1.63-.85,2.76-1.51,1.77.57,1.18,2.49,1.4,4.13.6-.61,1.09-1.51,1.72-1.63s1.52.45,2.39.75c1.43-2.93,1.77-6.68,5.64-8l-.19-.31-3.08-.39-.15.2.78.5c-2.49,1.75-16.4.7-21.22-1.52a5.36,5.36,0,0,1-5.07,1.13,30.61,30.61,0,0,1-3.81-1.27,7.68,7.68,0,0,1,1-.13c2.32,0,4.64,0,7,0,4.7-.12,9.44,0,14.09-.53,6.63-.82,13.25-.53,19.88-.6a15.72,15.72,0,0,1,2.85.35,6.61,6.61,0,0,0,3.87-.19,3,3,0,0,1,1.94.12c2.19.75,4.34,1.59,6.52,2.39.44.16.9.25,1.46.4L213.31,1c.8.18,1.54.41,2.29.5,2.33.28,4.66.52,7,.74,2.11.2,4.23.29,6.32.58a23.57,23.57,0,0,1,3.37,1,2.07,2.07,0,0,0,.51.16,82.49,82.49,0,0,1,9.53.17c1.3.16,3.07.58,3.9,2.15a.73.73,0,0,0,.22.27c1.23.79,2.43,1.63,3.7,2.34,2.68,1.5,5.44,2.87,8.1,4.4,3.13,1.8,6.22,3.69,9.3,5.56A13.27,13.27,0,0,1,269,20a13.3,13.3,0,0,0,2.5,2c1.45.68,1.65,1.89,1.87,3.19a5.59,5.59,0,0,0,.22.67l2.25-1.19c.1.08.25.14.28.24a4.75,4.75,0,0,0,3.06,3.11c1.66.65,1.71,2.46,3,3.32a24.56,24.56,0,0,1,3.47,3.29c.83.81,1.71,1.57,2.47,2.44a7.69,7.69,0,0,1,.88,1.68c.07.15.08.35.18.47,1,1,1.94,2,2.91,3,.08.09.13.2.2.3l3.53,4.43,2.76-.13,1-3.81c1.45.53,2.91,1,4.36,1.59.26.1.6.23.7.44.74,1.61,2.05,1.26,3.29,1,4.6-1.09,9.19-2.23,13.79-3.34a8.23,8.23,0,0,1,2.11-.37c1.12,0,1.5-.46,1.51-1.5a2,2,0,0,1,2.6-2,3.16,3.16,0,0,1,2.58,1.87A10.42,10.42,0,0,0,332.12,43a3.57,3.57,0,0,1,1.22.22,5,5,0,0,0,3.81.44c2.41-.5,4.79-1.33,7.32-1a1,1,0,0,0,.67-.16c1.52-1.16,3.29-1.25,5.09-1.36a29.48,29.48,0,0,0,4.21-.61c.32-.06.59-.56.79-.91.48-.87.72-2.27,1.41-2.54s1.93.39,2.78.9c1.28.76,1.58,2.17,1.76,3.53.15,1.12.68,1.57,1.76,1.39l8.26-1.39c1.06-.18,2.11-.4,3.18-.57,2.27-.35,4.55-.64,6.82-1.06.29-.05.66-.65.68-1,.09-1.39.07-2.8,0-4.2,0-1,.54-1.46,1.4-1.32,2,.32,4,.67,5.28,2.57A15.11,15.11,0,0,0,390,37.46a1.75,1.75,0,0,0,.37,2.51l1.32-1c.42,2.25,1.91,2.1,3.55,1.82s3.31-.15,4.87-.56A13.49,13.49,0,0,1,406,40c2,.33,4.19-.29,6.29-.52,2.54-.28,5.08-.55,7.62-.88,4.3-.55,8.59-1.14,12.89-1.73a7.46,7.46,0,0,0,1.62-.41,2.87,2.87,0,0,1,3.19.37c.24-1.44,1.35-1.15,2.19-1.12s.9.57.79,1.31c-.06.41.27.88.46,1.44l2-1.34c-.12,1.7.78,3.08.44,4.75-.29,1.42.05,3-.09,4.43-.39,3.9,0,7.8,0,11.69-.07,4.6-.45,9.2-.46,13.8,0,13.4,0,26.79.06,40.19,0,2.49,0,5,0,7.48a20.72,20.72,0,0,1-.47,2.66,3.47,3.47,0,0,0,0,1.05,26.87,26.87,0,0,1,.49,2.9c.08,2,.06,4,0,6a7,7,0,0,1-.49,1.7ZM262.52,34.55c1.54.91,2.17,3,4.32,3.22a9.06,9.06,0,0,0-4.2-3.35,21.77,21.77,0,0,0-7-4.86,5.4,5.4,0,0,0,1.28,1.19,38.45,38.45,0,0,1,3.59,2.56A4.56,4.56,0,0,0,262.52,34.55ZM268,138.5l4.08-.43a4,4,0,0,0-4.08.46c-.19-.2-.38-.58-.57-.58-.74,0-1.48.13-2.33.22l.91,3c2.29,1,4.2-.27,6.23-.56v-.35h-4.47Zm16.86-75.44-1.78-2.91,1.54.41.12-.42-2-.56c.1,2.45.29,2.74,2.17,3.45l-.35,2.06-2.64-1.9L283.47,66l-2.31-1-.12.22,2.27,2.38c-.41-1,.11-1.25.87-1.48l2.38,2.69c1.51-1,1.51-1,3,.35l.27-.21ZM389.73,71.9l-1.43.48c.1-1.81.2-3.52-.81-5.07-.21-.32-.12-.86-.15-1.29-.16-2.23-.3-4.45-.48-6.68,0-.61,0-1.44-.36-1.76s-1.15-.05-1.74,0c-2.06.21-4.12.4-6.17.68-1.08.15-2.1.76-3.24.1-.3-.18-.85,0-1.28.12-2,.37-4.08.78-6.13,1.1a9.81,9.81,0,0,1-2-.13c.56,1.6,1.56,1.81,2.87,1.71a8.71,8.71,0,0,1-1.06,1.27c-.26.3-.6.65-.62,1-.06,1.59,0,3.19,0,4.79,0,.8,1.85,1.84,2.63,1.51v-.78l4.65.57-.17,1.24c2.11,1.1,2.58,1,4.11-.92l-.89-.48.86-1.23c-1.29-.45-2.34-.5-3.18.69l-1.73-1.38,3.53-1.7c1.7.86,3.38,1.55,3.93,3.53.06.23.68.31,1.2.53l-.13-1.63,3.62-.23c.59,1.83-2,1.29-1.8,2.79l2.41.44,0,.33a11.92,11.92,0,0,1-3.35,1.07c-1.91,0-3.37.49-4.13,2.5l-5.64-1.38-4.56.5a1.52,1.52,0,0,1-.05,2.23c-.13.14-.08.46-.08.7,0,4,0,7.92,0,11.88,0,.91.4,1.2,1.24,1.17s1.9,0,3,0l-.38,1.66a4.78,4.78,0,0,0,4,1.4c1.53-.11,3.08,0,4.7,0v1.91l2.17.8-.33,1.1h-3.18l.65-1.85L378.69,95c.21,1.29-.4,1.48-1.37,1.48s-2.1.18-3.18.29v1.48h-5.21l-.54,10.35c1,.12,1.93.28,2.83.3.37,0,.81-.5,1.11-.41a28.7,28.7,0,0,1,2.82,1.15c-.53,1.55-1.66,1.63-3.06.41a16.56,16.56,0,0,1-1.78.43,12.57,12.57,0,0,1-1.64,0l0,.48c4.39.76,8.87.68,13.39,1v1.26c-2.15,0-4.22.06-6.29,0s-4.22-.33-6.34-.44c-1-.05-1,0-.94.93l12.44.95-.09,1.78c-1.81-.18-3.47-.32-5.12-.5-2.49-.28-5-.61-7.54-.92a1.66,1.66,0,0,0,2.26,1.11,2.06,2.06,0,0,1,1.22-.22c1.05.33,2.06.79,3.11,1.21-.61,1.21-1.53,1.19-2.6,1.07a35.83,35.83,0,0,0-3.68,0l0,.46c1.54.11,3.09.35,4.62.31,2,0,3.48,1,5.09,1.74h-8.1v.14L380,122l-.12,1.39-2.8.25v.12l10.94.88.08-.51-3-.91,3-1-.07-.34-2-.16-.17-1.27,2.7-.44c.06-1.35.58-2.78-1.23-3.39-.24-.08-.37-.48-.55-.73l2-.9-.09-.53-4.11-.5-.36-.05c-.92-.11-1.26-.55-.84-1.53h5.23a22.66,22.66,0,0,0,1-4.34c.11-4.4,0-8.8,0-13.2,0-1.18-.27-2.36-.38-3.54a6.85,6.85,0,0,1,.08-1.16,12.33,12.33,0,0,0,.12-1.57c0-.67-.22-1.34-.24-2-.12-3.64-.14-7.28-.34-10.91-.08-1.39-.57-2.76,1-3.61l.66-.19.25,5.39H391c.15-.89.74-2.13.37-2.6-1-1.23-.57-2.49-.67-3.75-.17-2-.19-4.07-1.13-5.95,0,.93.06,1.84.08,2.75C389.73,69.06,389.72,70.48,389.73,71.9ZM280.45,84.79l0,0-1.43-3.7,1.71-.87c-.56-.63-1-1.15-1.49-1.66-1.25-1.35-1.05-2.44.72-3.09-1-.77-1.89-1.62-1.68-3a3.52,3.52,0,0,1,2.61,1.91c.28.41.91.57,1.39.85.14-.28.29-.55.4-.84,0-.07-.06-.19-.1-.31l-1,.43-2.41-2.89,1.23-.8-1.5-3.4c-.2.23-.38.43-.55.64l-6.63,8.2-.08.09c-1.91,2.55-3.57,5.27-6.26,7.19-1.32.94-2.2,2.47-3.4,3.61-1.73,1.65-3.57,3.19-5.37,4.77l-.31-.29c.65-1.27,1-2.81,2-3.75,1.34-1.3,2.27-2.37,1-4.19l2,1.33c1-.5.57-1,.13-1.5s-1.34-1.31-.09-2.11l1.69,1,.42-.76a10.52,10.52,0,0,1-1.64-1.12c-2.18-2.2-4.26-4.5-6.48-6.66-1.11-1.08-1.42-1.68-.91-3.16l-2.5-2.76,2.19-.15-.77-1.34,2.58,1.69-1.39-2c1.21-1,2.43-1.41,3.27-1L259.54,64l5.54,5.51-.21.33H263l.68,1.36-1.45.09-.11.36,1.33.57-.33.59,2.19,1.52.4-1.36,3.57,3.25c1-1.14,1.91-2.16,2.77-3.26a1.21,1.21,0,0,0,.14-1.61c-.29-.44-.11-1.18-.15-2l1.8,1.11.61-2.63h1.36a21.58,21.58,0,0,0-1.88-3,24.19,24.19,0,0,0-3.06-2.76C269.49,61,268,60,266.71,59a6.69,6.69,0,0,1,1.55-.45,5.72,5.72,0,0,1,1.54.24L267.27,56l.93-1.09,1.58,1.27,1-1,1.86,1.28.42-.75a17.72,17.72,0,0,1-2.5-1c-3.35-2-3.56-5.28-2.48-8.63.35-1.07.07-1.53-.88-1.86l-1.92,3.82,1.36,1.24a6.67,6.67,0,0,0-3.55,2.38s0,.07-.08.09c-1.45.59-1.69,2.13-2.53,3.2q-4.65,5.94-9.34,11.86A15.82,15.82,0,0,1,250,68.34c-.58.57-1.25,1.06-1.83,1.63s-1.29,1.42-2,2.1c-1.42,1.43-3.52,2-4.53,4.08-.56,1.16-2.53,1.43-3.39,2.73a.15.15,0,0,1-.11,0,4.56,4.56,0,0,0-2.7,1.3,2.19,2.19,0,0,1-1.13.31c-2.15.19-2.18.22-1.88,2.4l1.57.49-1,.88,1.24.59-.42.26c-.89.48-1.43,1-.53,2a2.18,2.18,0,0,1,.21,1.48,3.33,3.33,0,0,0,1,2.89c1.64,1.65,3.2,3.39,4.77,5.11a8.26,8.26,0,0,1,.75,1.1h4.22l-6.44-7.93c2.32-.22,4.17,1.57,4.43,4.18l.6-.57,1.3,1.47c1.18-2-.33-3.21-1.42-4.52l.23-.29,2.32.65,0,0c.22.62.73,1.31.6,1.86a2.71,2.71,0,0,0,1.1,2.76,7.61,7.61,0,0,1,2.05-.36c.21,0,.38.79.49,1.23a5.77,5.77,0,0,1,.14,1.19,1.44,1.44,0,0,1-1.27,1.71c-1,.18-2.08.41-3.11.61a4.44,4.44,0,0,1,0,2.53,1.33,1.33,0,0,0,.21,1c.81.78,1.7,1.47,2.53,2.17l.3-1.81,2.94,2.48a1.9,1.9,0,0,1,.23,1.31c0,.32-.08.84-.26.92-1.33.55-.57,1,0,1.48s1.21,1,1.77,1.39c-.5,1-1.07.95-1.76.54-1.55-.91-2.95-2-4.39-3.06-2.13-1.52-2.91-3.58-3.75-5.75-.21-.54-.39-1.1-.5-1.41l.57-1.45a1.76,1.76,0,0,0-1.24.16c-1.37.89-.93,2.54-1.52,3.76s.9,2,1,3.1l-1.47.45c.44,1.75.89,3.44,1.29,5.14a6.74,6.74,0,0,1,.21,1.75c-.07,2-.24,4.09-.29,6.13-.09,3.71,0,7.42-.23,11.12-.13,2.31-.7,4.59-1,6.89-.18,1.35-.41,2.83,1.78,2.88l-.35,1.3-1.72-.25.37.9,2.54-.75c.56.64.9,1.38,1.42,1.55,1.12.36,1.17-.84,1.76-1.47l-2.06-.74,1.4-.56c-.72-1.12.35-1.71.73-2.64.21.36.29.67.49.82,1.53,1.17,1.32,4.18,4.15,4,0,0,.07.08.08.08a23,23,0,0,0,3.11-1c.18-.08,0-1-.08-1.57,1.3-.42,2.14.08,2.31,1.57l2.23-.37a4.21,4.21,0,0,1,5.93-4.51,3.24,3.24,0,0,1,4-1.52c.13,0,.41-.34.62-.53l-.19-.24-2.59.24a2.83,2.83,0,0,1,2.78-2.12,31,31,0,0,0,3.19-.49,5.91,5.91,0,0,0-2.79-.06,3.16,3.16,0,0,1-3.72-.82c1.91-2,4.67-.74,6.74-1.92-1.11.08-2.2.3-3.29.38-1.3.09-2-.51-2.39-1.94l3-.19c.88-.05,1.76,0,2.62-.16.31,0,.57-.39.86-.6a3.15,3.15,0,0,0-1-.38c-1.53,0-3.06,0-4.71,0a3.35,3.35,0,0,1,3.05-1.83,11.79,11.79,0,0,0,2.36-.43l-.08-.47h-3.94v-1.32l3.49-.77,0-.22-3.39-.23c-.34-1.1.12-1.44,1.09-1.46s1.94-.13,2.91-.19V120c-1.61-.29-3.4-.05-4.74-1.46,1.37-.13,2.49-1.16,3.91-.48.21.1.68-.33,1-.51l-.13-.38-3.77-.46.19-1.26,3.59-.44,0-.39h-3.61c.67-1.7,2.15-1.52,3.42-1.83-1.18-.33-2.34-.55-3.51-.76-.06,0-.14.08-.21.1a7.28,7.28,0,0,1-6.85-.51c-.72.33-1.36.87-2,.85a37.4,37.4,0,0,1-4.27-.58c.58-1.43-.33-2.42-1.58-3.4l2-.43c-.52-1.35-1.9-2.47-1.27-3.91,1.5,1.28,3.05,2.62,4.64,3.92a1,1,0,0,0,.92.15c1.34-.75,2.86-1,4.15-2,2.48-2,5.26-3.61,7.91-5.37.36-.24.79-.4,1.14-.65a21.08,21.08,0,0,0,2.51-1.95c1-1,1.83-2.09,2.74-3.14s2.05-2.31,3-3.5a1.05,1.05,0,0,0,0-.85c-.56-1.55-.57-1.54,1-2.36L284,89.67c.05-.54.2-.89.09-1.08-.68-1.09-1.41-2.16-2.17-3.21-.11-.15-.44-.12-.65-.21S280.73,84.92,280.45,84.79ZM171.08,35.69a10.61,10.61,0,0,1,1.65.94,2.55,2.55,0,0,0,3.16.38l.12-1.49,5,7.68.51-.19a8.9,8.9,0,0,0-.32-1.81c-.5-1.26-1.16-2.46-1.65-3.72a8.2,8.2,0,0,1-.18-2c2.1,1.13,2.81,2.95,3.95,4.39a.39.39,0,0,1,0,.35c-.48.9.21,1.39.67,2,1.08,1.34,2.19,2.66,3.25,4a3.85,3.85,0,0,1,.4,1l.6-.48a6.62,6.62,0,0,0-.43-1.26q-1.14-2-2.38-3.88c-.47-.74-.64-1.39.19-2a1.32,1.32,0,0,1,2.07.56c.91,1.55,1.74,3.15,2.68,4.68A6.63,6.63,0,0,0,194.16,48a9.47,9.47,0,0,0-.87-2.12c-.62-1.16-1.34-2.27-1.85-3.47-.14-.33.3-.91.47-1.38.43.25,1.2.45,1.25.77.3,1.82,1.88,2.63,2.88,3.89.16.2.55.2,1,.36-.66-1.38-1.15-2.6-1.8-3.73-1.07-1.87-1.11-1.84.86-2.85a1.83,1.83,0,0,1,.31-.1c1,.92,1.44,1.86-.19,3.07,1.51-.28,2.18.16,2.47,1.28.06.21.6.29,1.21.56-.61-1.3-1.08-2.26.18-2.94.94-.51,1.8-.12,2.64,1.15a5.89,5.89,0,0,0,.54.61c1.22-3.18,1.22-3.18,2-3.28,0,.92,0,1.83,0,2.74,0,.26.24.7.4.72s.84-.1.93-.3A17.3,17.3,0,0,0,208,39.33c.25-1.48,1-2.06,2.35-1.35a6.92,6.92,0,0,1,.95.73c-.76,1-1.5,1.88-2.14,2.84A3.39,3.39,0,0,0,209,45.1c.36-.52.64-.93.94-1.33a19.73,19.73,0,0,1,1.79-2.24c.29-.29.9-.25,1.36-.36-.07.47,0,1.07-.25,1.39-.86,1-1.89,2-2.75,3a22.48,22.48,0,0,0-1.53,2.38l.3.39c.4,0,1,.17,1.18,0,1.57-1.54,3-3.18,3.4-5.55.31.08.62.14.92.23,2.26.66,4.51,1.3,6.91.89,1.7-.29,3.52-.45,4.67-1.88,1.82-2.26,3.59-4.59,4.08-7.6.35-2.12.73-4.24,1.13-6.35a16.34,16.34,0,0,1,.51-1.93,11.58,11.58,0,0,0,.84-2.51c.13-2,.07-3.92,0-5.88,0-.68-.14-1.36-.21-2h-.23l.57-1.14-4.38-.6-1,3.54c.25-1.84-.8-3.89.92-5.48l-1.61-.28c-1.17,2.16-3.76,1.77-6.27-.93l3.33.47a7,7,0,0,0,.46-1.19c0-.21-.12-.64-.23-.66-1.6-.26-3.2-.46-4.85-.68l.12,1.32-1.81.2,1,1.13a3.15,3.15,0,0,1-.7.32c-1,.17-1.35.76-1.26,1.77a26.69,26.69,0,0,1,0,3c0,.25-.11.7-.23.72-1,.18-.58.77-.55,1.45l1-.87V23l-1-.21c-.28,1.86-.59,3.68-.82,5.5-.2,1.62-.27,3.26-.5,4.88a5.76,5.76,0,0,1-.7,1.51.84.84,0,0,1-.33-.65c0-2.92,0-5.84,0-8.76a11.73,11.73,0,0,1,.24-3.55,14.13,14.13,0,0,0,.57-4.11c0-.71-.52-1.75.81-2,.07,0,.16-.3.13-.43-.27-1-.55-2-.89-3a.8.8,0,0,0-.67-.4,10.65,10.65,0,0,1-6-.26,2.33,2.33,0,0,0-1.07,0c-1.94.43-3.88.93-5.82,1.36a89.61,89.61,0,0,0-9.89,2.57,27.58,27.58,0,0,1-8.78,1.94,70.17,70.17,0,0,0-9.94,1.29,19.67,19.67,0,0,0-4.49,1.13c-1.6.67-1.53.82-2.43-.73-.66.78-1.92.84-2.44,2.2l2-.47.25.42a20.1,20.1,0,0,1-2,1.67q-10.48,6.85-21,13.64c-2,1.28-2.31,3.09-.88,5a16.61,16.61,0,0,1,1.78,2.55c.92,1.86,1.51,3.81.56,5.86-.15.33-.5.79-.76.8-1.5,0-2,1.19-2.58,2.22-.49.85-.24,1.48.61,2a12,12,0,0,1,2,1.49c1.67,1.55,3.28,3.17,4.94,4.72,1.3,1.21,2.31,1,3.23-.77a2.56,2.56,0,0,0-.8-.06,2.47,2.47,0,0,1-2.73-1A50.16,50.16,0,0,1,144,55.42a19.68,19.68,0,0,1-1.43-3.24l.35-.18c.25.18.51.34.75.54,2.5,2.06,5,4.13,7.5,6.18a8.27,8.27,0,0,0,1.21.69l.2-.29-.93-1.22c-.92-1.21-1.89-2.39-2.75-3.64-.23-.34-.15-.89-.21-1.34.45,0,1-.16,1.32,0a9.89,9.89,0,0,1,2.06,1.41c1.17,1,2.23,2.18,3.41,3.2a12.81,12.81,0,0,0,1.86,1.15l.3-.38c-.35-.5-.67-1-1.05-1.5-1.08-1.34-2.18-2.66-3.27-4-.39-.47-.64-1.06,0-1.43a2.7,2.7,0,0,1,1.5-.14c.22,0,.42.35.62.53,1.27,1.16,2.51,2.35,3.83,3.45a6.81,6.81,0,0,0,1.57.75l.22-.32-4.8-6.81.36-.42a7.42,7.42,0,0,1,1.6.48,23.55,23.55,0,0,1,6,4.73,5,5,0,0,0,1.65.8l.18-.35c-2-2.3-4-4.58-5.94-6.9a4,4,0,0,1-.46-1.11,4.21,4.21,0,0,1,1.21-.25,2.69,2.69,0,0,1,1.2.46c.83.55,1.61,1.18,2.42,1.77,1.2.87,2.42,1.73,3.63,2.59l.25-.25c-.75-1-1.51-2-2.24-3-1-1.33-1.91-2.66-2.81-4-.18-.27-.09-.72-.13-1.09l1.19.13a.49.49,0,0,1,.2.12c1.91,1.51,3.82,3,5.71,4.54.61.49,1.16.92,1.95.11-2.67-1.73-3.56-4.45-4.77-7l.39-.37,6.06,4.56a7.39,7.39,0,0,0-.23-1.3c-.65-1.52-.66-1.52.71-2.13a3.32,3.32,0,0,1-.35-1.22,3.83,3.83,0,0,1,.63-1.19h-1.88l.21,1.24A3.14,3.14,0,0,1,171.08,35.69ZM413.93,51.75c-.88,1.56-1.61,2-3.17,2.06a31.89,31.89,0,0,0-3.64.09c-2.17.31-4.31.86-6.49,1.14a43,43,0,0,1-4.6.13c-.83,0-1.32.22-1.21,1.26a61.64,61.64,0,0,0,.52,6.68,21.49,21.49,0,0,1,.71,4.12c0,2.38.36,4.77.27,7.15-.12,3.08-.3,6.12.65,9.11a1.69,1.69,0,0,1,0,1.28c-.84,1.13-.19,2.19,0,3.28a7.27,7.27,0,0,1,0,1.2c0,2.74,0,5.48-.08,8.22,0,1.25.56,1.55,1.66,1.54,3.08,0,6.16,0,9.24,0h4.37c-.42,1.21-1,1.86-2.24,1.41a2.1,2.1,0,0,0-.7-.11l-5,0c-.36,0-.71,0-1.07,0-1.57,0-3.15.19-4.72.09-1.77-.12-1.83-.15-1.61,1.39.9.19,1.71.39,2.52.53,1.56.28,3,1.61,4.73.45.1-.07.31,0,.47,0l2.45,0c1,0,1.91,0,2.85,0a18.61,18.61,0,0,0,2.72,0c3.37-.23,6.77-.09,10.26-.09l-.39,1a3.16,3.16,0,0,0,3.58-.53,2.86,2.86,0,0,1,3.06-.25v1.23c3-.1,5.92-.19,8.85-.33.27,0,.73-.35.75-.56.08-1.09,0-2.18,0-3a90.35,90.35,0,0,1-13.11-.2,14.57,14.57,0,0,1,1-1.48.94.94,0,0,1,.75-.32,17.11,17.11,0,0,0,4.05.41c2.17.08,4.46-.5,6.59.52.13.06.72-.4.72-.61,0-4.28,0-8.56,0-12.83,0-1.6-.07-3.2,0-4.8.17-5.65-.47-11.33.42-17a1,1,0,0,0-.11-.56,2.48,2.48,0,0,1,.36-3.23c-1.18-1.61-.64-3.23-.39-4.85l-1.33,1.14c.6-1.22,1-2.21,1.55-3.15.4-.73.28-1.33-.51-1.47a10.29,10.29,0,0,0-2.81-.08,21.42,21.42,0,0,0-2.71.62,3.35,3.35,0,0,1,2.56-2.29c.74-.15,1.51-.15,2.25-.27.21,0,.38-.25.58-.38-.22-.1-.44-.29-.64-.27-.59.08-1.17.26-1.76.37a3.29,3.29,0,0,1-3.82-1.7,13.1,13.1,0,0,1,2.49-.63,34.44,34.44,0,0,1,3.64.14l0-.45c-.38-.06-.75-.14-1.13-.17-3.29-.28-6.52.37-9.77.67-2.66.25-5.32.42-8,.63-1.24.1-2.5.13-3.72.33-1.61.27-3.19.73-4.85.25a1.91,1.91,0,0,0-.95,0c-1.26.32-2.52.67-3.78,1l-.06-.16,2.13.36v1.36L395,52.79l0,.44a5.35,5.35,0,0,0,4.05,0,8,8,0,0,1,5.34-.65,30.57,30.57,0,0,0,3.26.63c.38-.42.58-.87.84-.9C410.31,52.1,412.09,51.95,413.93,51.75Zm-103.81,8,.07.44a9,9,0,0,0,1.33,0c.93-.14,1.85-.38,2.78-.51,1.47-.2,2.95-.37,4.42-.51,2-.19,3.92-.38,5.88-.51a.9.9,0,0,1,.68.56.86.86,0,0,1-.5.69c-1,.23-2,.38-3.06.52-.51.07-1,0-1.54.08-1.84.38-3.65.86-5.5,1.2-1.45.27-2.92.38-4.38.56l.08.6c2.2-.3,4.4-.57,6.58-.92,1.42-.23,2.06.05,2.58,1.38A70.1,70.1,0,0,0,310.39,65c1.5.95,1.52,1.13.11,2.31L311.7,70a2.76,2.76,0,0,0-.39,1.05,42,42,0,0,1,.2,5.47c-.21,1.85,1.18,3.65,0,5.47-.08.12.06.38.11.57l1.57,6.79,1.59-.12a1.29,1.29,0,0,1,1.3-1.72c1.62-.16,3.24-.21,4.86-.31.5,1.79,1.26,2.18,2.87,1.35a5.29,5.29,0,0,1-1.18,0,5.21,5.21,0,0,1-1-.49,5.61,5.61,0,0,1,.76-.71,3.8,3.8,0,0,1,.84-.31l0-.21h-3.16c.65-2,1.36-2.26,3-1.19l.6.4a5.51,5.51,0,0,0,4.88.85c.72-.2,1.46-.31,2.24-.47l.57,1.6-2.94.5c-.3,1.61-.57,1.8-2.44,1.82-1,0-2,.12-3.07.19a5,5,0,0,0,2.26.26c1.08-.12,1.3.41,1.23,1.36-1.81.24-3.54.51-5.29.66-.45,0-.93-.33-1.4-.51l0-.42,1.13-.9L318,90.58l.95,2.16-6.22.41v16.31c.47-.14.73-.22,1-.31l.86-.33c0,1.77-.22,2-2.08,2.36l-.32,1.54,2.44.48-.25,1.16-2.19.22-.47,3a10.53,10.53,0,0,0,1.91.53c1.86.16,3.73.2,5.6.35a13.78,13.78,0,0,1,2,.47l.41-.7,3.9,1.5-.38,1.22c-1.91-.34-3.64-.75-5.38-.95-2.41-.27-4.84-.4-7.26-.55-.26,0-.53.19-.79.29.24.19.46.48.73.54,1.72.36,3.44.69,5.17,1,1.08.19,1.36.69.92,1.38-2.13-.17-4.1-.34-6.08-.46-.24,0-.51.26-.76.4.23.21.44.54.71.61a30.71,30.71,0,0,0,4.09.89c2.74.31,5.5.47,8.46.7,0,0,.18.27.33.54s.15.35.32.76c-4.11.69-7.94-.78-11.87-.87.95.62,2.05,1,1.9,2.52l-4.73-1-.08.3,5.43,1.71c.53-1,1.23-.14,2.06.31l-1.21,1.11c.51.6.92,1.45,1.55,1.67.44.15,1.18-.55,1.79-.87l-.15-.37-2-.33,2.09-1.44L316,127l0-.37a9.89,9.89,0,0,1,2.44-.39c1.71.15,3.4.49,5.09.77,2.39.4,4.78.83,7.34,1.28a12.06,12.06,0,0,1,0-2.49,8.92,8.92,0,0,1,1-2h1c0,1.33,0,2.6,0,3.87,0,.16,0,.43-.07.45-1.12.42-.63,1.4-.71,2.14-.15,1.43-.17,2.87-.28,4.31-.07.88.08,2.12-.42,2.54-.92.76-.6,1.51-.63,2.34s.75,2.16-.73,2.76c-.07,0,0,.29-.08.45-.4,2.14-.25,4.38-1.39,6.37a1.8,1.8,0,0,0-.12,1.28c.39,1.26-.14,2.33-.52,3.45-.13.37-.23.74-.35,1.13,2.1.17,2.07.17,2.17-1.82a6.43,6.43,0,0,1,.39-1.37c.19-.65.41-1.29.54-1.95.27-1.42.49-2.84.77-4.53-1.17-1.32-1.11-1.57.47-3.1a2,2,0,0,0,.5-1.56c-.28-1.82.3-3.49.69-5.19.25-1.11.8-2.17,1-3.29.33-2,.4-4,.74-6,.53-3.18-.39-6.47.93-9.63a12.28,12.28,0,0,0,.4-4.48c0-6.24.14-12.48,0-18.71-.1-5-.47-10-.73-15.07,0-.47-.22-.94-.27-1.41-.23-2.12-.48-4.25-.64-6.38-.19-2.44-.07-4.93-.49-7.32s-1.57-4.93-1.57-7.57a2.36,2.36,0,0,0-.14-.58l-1.86-7c-.76,0-1.15.4-.95,1.17.26.95.68,1.85,1,2.78a8,8,0,0,1,.54,1.91c.07.94,0,1.89-.06,2.84s0,1.81,0,2.75h-1.17a5.52,5.52,0,0,0-.74-1.89c-.56-.57-.6-.95-.12-1.51a7.1,7.1,0,0,0,.53-.88c-2.95,0-5.72-.41-8.44.76l1.53,1.86c-2.28.29-4.37.49-6.44.82S312.16,59.36,310.13,59.76Zm29.41,57.8c1.17,1.94.16,3.36-.84,4.81a1,1,0,0,0,.28.91,15.11,15.11,0,0,0,2.61.74c1.56.3,3.19.34,4.5,1.67l-2.34.45-.06.28,2.28.36c.28,1,.06,1.43-.87,1.55a5.79,5.79,0,0,1-1.2,0l-4.86-.41a2.49,2.49,0,0,0,1.42.68c3.52.36,7,.67,10.56,1,.16,0,.31,0,.47.08,2.27.43,4.54.88,6.81,1.28a4.08,4.08,0,0,0,1.08-.1v-.25l-7.13-1.4.19-1.39c.5.06.93.09,1.35.16,1.85.32,3.7.63,5.54,1,.75.15,1.05-.05,1-.8l-7.44-1.23-.07-.39c.49-.28,1-.83,1.46-.79a18.64,18.64,0,0,1,4.16.77,1.63,1.63,0,0,0,2.31-1.19l-8.51-1.46.2-1.54,8,1.27v-1.48h-3.28a2.67,2.67,0,0,1,3.54-1.39v-1.18h.64l.82-19.1,1.69.22v2.87c1,.11,1-.43,1-1,0-3.16,0-6.32,0-9.48a22,22,0,0,0-.46-3c-.5,2.68.44,5.5-1.25,7.94-.87-.14-1.21-.51-1.21-1.37,0-5.59-.13-11.19-.22-16.78a8.81,8.81,0,0,0-.19-3.08c-1.14-2.76-.64-5.68-1.06-8.49-.11-.77-.18-1.54-.31-2.31s-.33-1.49-.42-2.24a25.73,25.73,0,0,0-.36-3.42,7.58,7.58,0,0,0-1.31-2l.21-.36a12.17,12.17,0,0,0-1.95.12c-1.44.32-2.85.76-4.29,1.08a6.68,6.68,0,0,1-1.53,0,8,8,0,0,0-1.46,0c-2.33.41-4.65.92-7,1.28-1.52.23-3.08.26-4.62.39.09.38.28.61.49.62a11.81,11.81,0,0,0,1.55-.09l10.19-.89.26,1.6-9.05.72c-.72,1.42-2.17-.23-3.47.81,1.88.54,3.63.22,5.3.59l-.13,1.41h-4.41l-.23.32c.28.29.58.56.83.86s.42.62.68,1L338,68c0,.32,0,.6,0,.87,0,2.08.2,2.3,2.34,2.24.7,0,1.41,0,2.47,0l-2.3,1.54.15.38,3-.89c.09,2.06.09,2.1-2.11,2.21a1.49,1.49,0,0,0-1.47,1,8.94,8.94,0,0,0-.57,4.08c0,2.27,0,4.53,0,6.85l3.51.38,0,.28-2.84,1.11,1.51,1.26-.48.48-.88.57c1.55.41,3.32-.35,4.4,1.49l-4,.83,0,.39,2.68.55-2.95.73,0,.35H346c-1.5,1.88-3.57,1.16-5.35,1.48l0,.38,2.53.32-.06,1.1-1.26.28-1.47,2.22v2.73l2.17.59c-.43.55-.67,1.11-1.1,1.35s-1.18-.25-1,.89l9.71,1.23.06.48a8.79,8.79,0,0,1-2,.56c-2.23.07-4.46,0-6.68.06a4.69,4.69,0,0,0-1.39.59c1.29.9,3.24-.11,3.52,2.11-.82-.07-1.49-.11-2.16-.18-1.9-.2-2.34.34-1.73,2.22,1.46,0,2.93,0,4.41,0,1,0,2.06-.07,3.08-.08a7.8,7.8,0,0,0,1.81,0c.69-.18,1.21-.13,1.52.5a10.93,10.93,0,0,1,.52,1.71c-2.38-.25-4.36-.53-6.35-.65-1.11-.07-2.24.16-3.37.18a11.17,11.17,0,0,1-1.77-.26l.05,1.12,4.09.53-.27,1.35Zm83.88,14.5c-.75-.56-1.24-1.23-1.82-1.31-1.62-.22-3.28-.2-4.93-.26-5.23-.17-10.46-.31-15.69-.5-.32,0-.63-.3-1.24-.61l-2.13.38c-.73.14-1.75-.44-2.05.9.82.37,1.47,1.36,2.58.51a1.48,1.48,0,0,1,.94-.07c1.47.17,2.94.47,4.41.53,3.22.15,6.45.18,9.68.26a2.16,2.16,0,0,1,.48,0,4.24,4.24,0,0,0,3.36-.11,6.87,6.87,0,0,0,1.65.55c2.44,0,4.88,0,7.32,0h2.35c-1.14,1.09-1.84,2.25-3.42,1.86a13.59,13.59,0,0,0-2.69-.37c-1.88-.07-3.76-.06-5.64,0a11.73,11.73,0,0,0-1.51.2,1.8,1.8,0,0,0,1.17.52c1.26,0,2.52,0,3.78,0s2.26.2,3.39.23c1.69,0,2.29.44,2.68,2h-3.62v.37l8.61.75-.91,1.44,2.19.33c-.53-.41-1.08-.63-1.2-1s.31-.77.5-1.16l-4.73-.79c.54-.59.79-1.1,1.18-1.25a3.16,3.16,0,0,1,3.82.88,8.73,8.73,0,0,1,1.75-.55c1.64-.14,3.29-.18,4.93-.26l0-.61c-3-.7-6.24.16-9.28-.85l.11-1.26h9.36c-.49-2.11-2.64-1.48-3.7-2.54l3.63-.76c0-1.76,0-3.47,0-5.18q0-7.74,0-15.47a3.49,3.49,0,0,0-.13-1.18,1,1,0,0,0-.65-.53,16.61,16.61,0,0,0-3.34-.11c-5,.62-10.13-.37-15.17.36a5.86,5.86,0,0,1-1-.07c-4.22-.11-8.44-.25-12.66-.31-2.55,0-5.1.13-7.65.07-1,0-1.5.32-1.6,1.27-.05.48,0,1-.06,1.44-.08,2.79,0,5.6-.29,8.38-.25,2.52-.53,5,.25,7.45.06.17-.11.41-.14.62-.08.49-.34,1.07-.16,1.43a1.71,1.71,0,0,0,1.24.65c1.53.14,3.08.15,4.61.24,3.13.18,6.26.26,9.4.55,6.1.58,12.26.4,18.4.53h1.46c.36,1.11-.44,1.52-1.11,1.42-1.55-.24-3.24.52-4.66-.64-.13-.11-.37-.09-.65-.15C425.19,131.88,424.24,132.08,423.42,132.06ZM243.32,71.74c1.94-1-.1-2.3.33-3.44A7.2,7.2,0,0,0,245,69.45a1.31,1.31,0,0,0,1.21-.09c.94-1,1.79-2,2.65-3.07.6-.74.77-1.5-.14-2.06.49-1.51,1.43-1,2.43-.47l.79-2.64a1.59,1.59,0,0,0,2-1.09c.9-2,3.05-3.05,3.63-5.24a.61.61,0,0,1,.32-.34c1.29-.55,1-1.2.15-1.92a4.33,4.33,0,0,1-.49-.57c.71-1.8,1.6-.28,2.23-.19a17.34,17.34,0,0,1,1.61-2.62c.68-.76.74-1.34,0-2s-.71-1.21.08-1.77l1.19.66.09-.14-1.86-1.71,2.61-1.81c-.94-.94-2.6-1-2.4-2.59a2.91,2.91,0,0,1-1-.22c-1.54-1.13-3.08-2.28-4.57-3.48a20.26,20.26,0,0,0-2.13-2,19.93,19.93,0,0,0-3.29-1.24l-1.19,2,2.22,2.77-.15.44-2.18-.15c-3.06,4.57-5.58,9.86-10.05,13.8l1.93,2,1.18-1.29,2.59,3a6.41,6.41,0,0,0-2.29-.18c-1.45.51-2.16.45-3-.64-.4-.49-.84-.95-1.18-1.32-.63.29-1.11.47-1.54.73-.23.14-.56.42-.54.61.15,1.43-.76,1.7-1.86,1.87-.75.11-1.47.39-2.22.48a4.9,4.9,0,0,1-1.32-.21,4.68,4.68,0,0,1-1.4.13c-.9-.18-1.76-.53-2.64-.77a1.12,1.12,0,0,0-1.56.87c-.36,2-.94,4.05-.24,6.14a2.37,2.37,0,0,1,.13,1.61c-.78,1.46-.25,2.89-.11,4.33a1.41,1.41,0,0,0,.46.77,3.45,3.45,0,0,1,.65,4.2c1.12.77,2.27,1.5,3.36,2.33.76.58,1.37,1.34,2.12,1.94a2.68,2.68,0,0,0,3.26.3l-1.67-2.94.53-.46,2.29,3.11c.73-1,1-2.23,2.51-1.51a4.31,4.31,0,0,0-.58-1.3,7.94,7.94,0,0,1-.7-1.16c0-.08.49-.55.65-.5a4.7,4.7,0,0,1,1.33.75,5.06,5.06,0,0,1,.72.82c.37-.53.64-1.29,1-1.32,1.58-.14,1.58-1.1,1.42-2.26a10.11,10.11,0,0,1,0-1.22ZM220,47.59a12.17,12.17,0,0,1,2.39,1.71c1.07,1.26,1.86,2.76,2.92,4,1.26,1.52,3.35,1.52,5,2.41,0,0,.08,0,.11,0l4.43-1.94-1-1.3a2.1,2.1,0,0,0,2.59-.77c1.26-1.5,2.6-2.94,3.8-4.48.67-.86,1.56-1.89,1.58-2.85A2.79,2.79,0,0,1,243,42a6,6,0,0,0,1.56-1.75,18.5,18.5,0,0,0,1.61-4.1c.33-1.46,1.79-2.63,1.13-4.35,0-.11.16-.43.3-.48,1-.36,1.06-1.28,1.18-2.28l5.88,4.55.47-1.25,1.82.73.17-.34-2.52-1.5c-.19-.12-.49-.26-.51-.42-.2-1.61-1.18-1-2.23-.64.43-2.38-1.82-1.68-2.74-2.51.12-.49.2-.92.34-1.34A11.31,11.31,0,0,1,250,25c.68-1.47.45-2-1.08-2.46-.22-.06-.44-.11-.66-.16l-.18-.32,2.23-1.74c-.15-.09-.43-.26-.69-.46s-.68-.55-1-.83l.91-1.05c-1-.44-.3-1,0-1.61-.69-.41-1.35-.77-2-1.19s-1.64-.59-.87-1.7l1.8.25c-1.25-1.47-3.55-.82-4.22-2.61l-1.87.46c1.61-.05,1.69,1.42,2.35,2.18l-.94,1.76L240,14.45V13.1l-.82-.13-1.37,1.79,1.15,1.43-.22.25-4-.41c-.36,1.58-.25,1.86,1.14,1.86s1.91.67,2,2l-2.22-.32-.08.33,2.64.76-.68,1.57.49.38a2.49,2.49,0,0,1-3.26,1c-.44,1.28-1.16,2.47-1.16,3.66s-.43,2.73,1,3.61c-1.64.9-2,2.26-.59,3.79a1.39,1.39,0,0,1,.37,1c0,.21-.51.35-.79.53l.31.56-1.49.43c.54.57,1.69.85.73,1.87L231.95,39c.43,1.22.73,2.34,1.2,3.39a5.11,5.11,0,0,1,0,4.16,2.45,2.45,0,0,1-4,.56c-.3,1-1,.95-1.7.58-.92-.47-1.82-1-2.74-1.45a1.17,1.17,0,0,0-.77-.1c-.54.16-1,.42-1.56.61C221.5,47.06,220.65,47.36,220,47.59Zm71.38,50.65a4.85,4.85,0,0,1-.79,1.28,5.55,5.55,0,0,1-1.38.58l.87,1.74c-.35.67-1.83,1.31,0,1.86.15,0,.2.49.26.76.1.46.16.93.25,1.49h9.73l.18,1.62h-6.35L296,109a10,10,0,0,1,2.23-.85c1.14-.12,2.31,0,3.46,0,1,0,1.38.4,1.1,1.41-3.78,0-7.53,0-11.28,0-1,0-1.31.39-1.14,1.27.2,1.08.45,2.15.7,3.31l7.73.9c-2.51,1.79-5.06,1.35-7.62,1.1A59.33,59.33,0,0,0,304.52,118c0,1.3-.8,1.59-1.63,1.47-3.21-.47-6.54,0-9.63-1.31a1.82,1.82,0,0,0-2.33.79l1.57.08a5.38,5.38,0,0,1,3.87,1.63,4.72,4.72,0,0,0,5,1.57l-1.35-.33c1.12-.9,2-2,3.49-1.3.2.09.65-.22.9-.44a12.8,12.8,0,0,0,1-1.15c.64-.72,1.35-.63,2.3-.13l.76-10.43-.45-.1c-.21.36-.56.7-.61,1.08-.16,1.26-.2,2.53-.29,3.79s-.22,2.7-.34,4.07l-4.71-.35.08-1.47c2.95.58,2.95.58,3.1-.49l-.94-1.23,1.47-1-4.06-1.6.07-.35c1-.06,2.05-.14,3.08-.16.75,0,1.05-.32,1.12-1.07.15-1.69.13-1.76-1.51-2.25l-1-.32-.08-.29,1.5-.76c.38-.2,1-.33,1.07-.63a6.72,6.72,0,0,0,.23-2c0-1.52,0-3,0-4.55s.35-3.19-2-4l2-1.18V91.87c.78.45,2-.38,2.15,1.19a8.39,8.39,0,0,0,.05-1.31c0-1.31-.13-2.62-.15-3.94,0-2,0-4,0-6.07a3.9,3.9,0,0,0-.52-1.25l-.37.11a11.1,11.1,0,0,0,.22,3.18c.68,1.83-.06,3.42-.56,5.15a3.78,3.78,0,0,1-.92-1.9c-.1-2,0-4,0-6,0-.12,0-.23,0-.4l-.89.11c0-2.85,0-5.64,0-8.43,0-1.11-.26-2-1-2.35a7.77,7.77,0,0,1-1.78.59c-1.16,0-1.6.5-1.71,1.72-.17,1.94-.63,2.16-2.6,1.84a2.13,2.13,0,0,0-.54.06c.43,1.08,2.33.61,2,2.23l1.43-.1.13,1.19-2.32.71,0,.35,1.18.5c.23,1.2-.71,1.06-1.57,1.52l1.53.87-.24.34-4.38-.63L298,83.69l-.24.51c-1.06-.28-2.1-.61-3.17-.82a15.72,15.72,0,0,0-2.2-.12l-.06.4,1.26.54a14.93,14.93,0,0,1,2.18.94,1.13,1.13,0,0,1,.2,2l-3.59-1.36c-.24,1.08-.57,1.95-2,1.52a11.4,11.4,0,0,0,.68,2.39,20.54,20.54,0,0,0,1.78,2.41l-.21.2-3.18-.85-.11.59,5.07.79a8.11,8.11,0,0,1-1.92,1.71,6.44,6.44,0,0,1-2.3.06l0,.45h4.18v1.5c-1.38,0-2.69,0-4,0a1.4,1.4,0,0,0-1.53,1.18Zm-57.9,45.68c.2,1-.08,1.46-1.09,1.35a5.53,5.53,0,0,0-1.32,0,2,2,0,0,0-.63.35c.22.15.44.4.67.42.79,0,1.6-.08,2.39,0,1.55.16,3,.18,3.86-1.21-.25-.49-.6-1.28-.4-1.45,1-.93.84-2,.83-3.21a14.24,14.24,0,0,1,.42-2.81c.15-.78.37-1.55.57-2.32.55-2.14-.33-4.46.88-6.51.05-.09,0-.24,0-.36,0-4.8,0-9.59,0-14.39a4.66,4.66,0,0,0-.31-1.09c-.14-.51-.27-1-.39-1.53-.23-1-.15-2.29-.74-3a6.42,6.42,0,0,0-6.07-2.67,11.36,11.36,0,0,0-3.71,1.55c-.4.23-.43,1.08-.53,1.38-.62.11-1.11.16-1.57.28-1,.26-1.68,1.62-3,1-.08,0-.5.32-.52.52a2.17,2.17,0,0,1-1.56,1.77c-1.65.74-2,1.69-1.15,3l-2.76,2.56,4.29.54c.41.31.91,1,1.45,1s1.19-.52,2.08-1l-1.38,1.71,2,1.81-.67.7c1.56.56,1.71,1.68,1.39,3l.68.2.24,2.23-1.73,1.42,3.17,1.8-.08.17-3.9-.42-.08.42,2.57.7-.08,1.16-3.49.42,1.77,2.55-3.19-.19v.4l6.62.35.3,1.37a9.83,9.83,0,0,0-2.11.18,1.39,1.39,0,0,0-.79,1c-.06.56-.28,1.48,1,1.26-.39-1.34.73-1.43,1.45-1.48a32.91,32.91,0,0,1,4.12.16,5.52,5.52,0,0,1,.81.16c-1.46,1.82-3.51,1.22-5.37,1.38v.29l5.62.5.1.34L230.5,143C230.5,143.11,230.5,143.11,233.46,143.92ZM182.11,66.7l.37.13a4.84,4.84,0,0,1-.55,1.21c-1.39,1.65-2.86,3.23-4.22,4.9-.27.33-.2.93-.29,1.41.36,0,.82.25,1.06.1a36.84,36.84,0,0,0,4.22-2.94c1.9-1.64,2.83-5.3,2-7.23a38.47,38.47,0,0,0-2-3.93c-.75-1.24-1.65-2.42-3.27-2.54s-3.2-.21-4.21-1.89a13.57,13.57,0,0,1-1.56,1.69c-.6.46-1.41,1.15-2,1-2-.37-2.7,1.23-3.92,2l.12.27L172,59.44a1,1,0,0,1-.12.78c-.91,1.22-1.87,2.4-2.72,3.65-.22.32-.11.86-.16,1.29a3.23,3.23,0,0,0,1.07-.49c1.25-1.34,2.45-2.74,3.68-4.11a8.45,8.45,0,0,1,.79-.69l.29.23a5.92,5.92,0,0,1-.54,1.11c-1.56,2-3.12,4-4.73,6a1.1,1.1,0,0,1-1,.25c-1.52-.63-1.67-.55-1.56,1.07,0,.32,0,.64,0,1a4.5,4.5,0,0,0,4.6,4.25,15.15,15.15,0,0,1,1.61-2.82c2.22-2.46,4.56-4.81,6.87-7.19a6.84,6.84,0,0,1,.94-.69c-1.22,4.13-4.5,6.62-7.23,9.57,1.94.81,2.38.62,3.28-1a7.34,7.34,0,0,1,1.42-1.9C179.67,68.63,180.91,67.69,182.11,66.7Zm-1.32,25.73.31.28c1.66-.18,2.06-2.35,3.88-2.7-.67,1.47-2.59,2.4-1.4,4.3a9.2,9.2,0,0,0,2.34-.62A4.89,4.89,0,0,0,187.73,92c1.53-2.74,1.85-5.57.14-8.4a2,2,0,0,1-.32-.9c-.07-2.1-1.41-3.07-3.19-3.67-.15-.05-.29-.13-.44-.19-2.46-1.05-3-1-4.35,1.36-1.62,2.84-3.06,5.78-4.55,8.69a2.62,2.62,0,0,0-.38,1.37c.08.72.17,1.69.64,2.06a17.24,17.24,0,0,0,3.63,2c.34.15.9-.17,1.2-.24-.73-.79-1.4-1.47-2-2.19-.28-.34-.38-.84-.67-1.17a2.25,2.25,0,0,1,.13-3.48c.83-.8,1.65-1.61,2.44-2.45.65-.68,1.25-1.41,1.88-2.11l.5.29a6.59,6.59,0,0,1-.51,1.47c-.73,1.14-1.55,2.22-2.31,3.35a1.76,1.76,0,0,0-.13,2.26l5.9-5.63.4.26a6.52,6.52,0,0,1-.57,1.4c-1.22,1.73-2.5,3.42-3.73,5.14A8.88,8.88,0,0,0,180.79,92.43ZM387,132c-.8.15-1.45.31-2.11.39a11.21,11.21,0,0,1-2.28.16c-1.67-.14-3.33-.37-5-.59-2.52-.33-5-.69-7.56-1v-1.58l17.29,2.21-.11-.68a15,15,0,0,1-2.74-.65,3.24,3.24,0,0,0-2.78-.22,4.48,4.48,0,0,1-2,0c-2.84-.3-5.67-.61-8.5-1a10.39,10.39,0,0,1-2.77-.63c-1-.41-1-1.11-.08-1.66l-1-.34c-1.14,1.92-1.07,2.18.72,3.1.37.19.72.4,1.27.7l-2.8.6-.16.31c.43.31.83.79,1.31.89,1.84.35,3.69.61,5.55.83.46.05.94-.26,1.42-.26a14.82,14.82,0,0,1,3.22.15c1,.22,2,.92,3,1.14a33,33,0,0,0,3.58.26,8.9,8.9,0,0,1,1.46.38c-.22,1.26-.84,1.44-1.78,1.27-1.45-.25-2.91-.4-4.46-.6,1.26,1.45,5.22,2.49,6.69,1.76a1.37,1.37,0,0,0,.5-1,20.93,20.93,0,0,0,0-2.19l.47-.12-.92-.6ZM287.35,83l.69-3.09.95,1.38-.17-1.16,1.77-.08-4-2.84c-.72.9-1.42.9-3.12,0,.16.78.89,1.64-.38,2.14l-1.21-1.07c-.28,1.2.52,2.58-1.41,3.1l3.71,4.46,1.09-3.59L286.81,86l.37-.08.16-2,.85.27.17-.24Zm94.56-32-.32-1.47,2.63-.73v-.35a17,17,0,0,0-2.4,0c-1.78.26-3.55.62-5.33.93-.56.1-1.14.15-1.7.22l0,.49a8.78,8.78,0,0,0,1,0c1.38-.15,2.76-.41,4.14-.44.5,0,1,.49,1.53.75l-.14.66-5.76.43-1.63.11,2.24,1.68c-1.76,1.15-4.15-.31-5.57,1.88L372,55a47.87,47.87,0,0,1,7-.75,44.75,44.75,0,0,0,6.09-.68c.31,0,.59-.39.88-.59a7.79,7.79,0,0,0-.79-.69,3.5,3.5,0,0,0-.74-.28l.63-1.58Zm-177.59,6.4c.19.29.33.54.5.76,2.6,3.54,5.22,7,6.36,11.42a11.56,11.56,0,0,0,1.74,2.85l.18-.14v-5l-1.72-.46,1.79-1.06-1.68-.56.23-.29a11.8,11.8,0,0,0-1.1-1.15c-.37-.3-1-.39-1.2-.75a3,3,0,0,1-.54-1.69c0-.24.74-.51,1.18-.67.82-.28,1.68-.46,2.5-.74a.86.86,0,0,0,.54-1.37,19.8,19.8,0,0,1-2.39.83c-1.88.4-3.8-.29-4.38-1.63C205.81,56.54,205.2,56.73,204.32,57.42Zm191.46,77.41,0,.21c2.77.52,5.55,1,8.31,1.57,1.85.39,7.7.15,8.17-.3L408.12,135l.07-.51,6-.5-.05-.38c-1.79,0-3.59,0-5.38,0a4.92,4.92,0,0,1-1.5-.63c-3.09.72-6.44,0-9.73.27,1.59.31,3.17.5,4.75.66,1.38.15,1.56.4,1.23,1.88ZM157.86,99c-.22-1.17-.34-2.2-.63-3.19a1.42,1.42,0,0,0-.92-.88,6.71,6.71,0,0,0-5.64,1.69,1,1,0,0,0-.18,1c1.25,1.84,2.54,3.65,3.89,5.41.21.28.78.28,1.22.42-.44-.88-.8-1.56-1.12-2.26A6.63,6.63,0,0,0,154,100a3,3,0,0,1,.08-4c1.51.85.87,2.48,1.3,3.77ZM142.93,62l.51-.5c-.79-1-1.56-1.95-2.38-2.89A9.32,9.32,0,0,1,138.53,54c-.27-1.59-.89-1.9-2.25-1.09-.47.28-.89.64-1.51,1.1C137.39,56.94,139.32,60.33,142.93,62Zm25.94,26.41a11.38,11.38,0,0,1-1.18.58c-1.54.5-1.85,1.17-1.21,2.69.23.55.55,1.06.79,1.61.33.76,1,1.6.86,2.3-.28,1.69.9,2.35,1.82,3.22.62.59,1.33.31,1.4-.56a3.07,3.07,0,0,0-.27-1.5c-.49-1-1.16-2-1.61-3.06a9.15,9.15,0,0,1-.58-2.49A26.53,26.53,0,0,1,168.87,88.38Zm-4.08-25.76c-.88.37-1.87.71-2.79,1.19-.67.35-.79.92-.46,1.72s.46,2,.78,3a16.7,16.7,0,0,0,1.44,3.73,37.4,37.4,0,0,0,3.39,4.33c.27.32.82.41,1.25.6l.19-.35A8,8,0,0,1,165,71.5a1.05,1.05,0,0,0-.52-.7c-.95-.36-1-1-.71-1.82a8.72,8.72,0,0,0,.59-1.8C164.52,65.74,164.62,64.29,164.79,62.61ZM362.89,124l-.39-.11a4.85,4.85,0,0,0-.59,1.39q-.39,4.76-.64,9.54a10.19,10.19,0,0,0,.23,1.86,55.37,55.37,0,0,0,1.37-7.61c.14-1.2-.37-2.62.1-3.6a9.71,9.71,0,0,0,.7-4.29c.07-2.63,0-5.26,0-7.91-.78-.13-.81.39-.81,1C362.9,117.57,362.89,120.8,362.89,124Zm-81.83-2.59A1.79,1.79,0,0,1,283,120c1.39,0,2.78-.11,4.16-.25.29,0,.55-.4.83-.62a3,3,0,0,0-1-.38c-2,.11-4,.87-6,0a.72.72,0,0,0-.35,0l-3.85.66c-.39.07-.77.16-1.15.24l0,.25,4.4.51-2.49,2c3.4.27,6.47-.09,7.83-1Zm81.76-52.84c-.18-1.5.18-2.95-.39-4.55s-.44-3.8-.47-5.72a6.56,6.56,0,0,0-.9-3.65,2,2,0,0,1-.33-1.35c.53-2.51-.92-4.62-1.24-7.08-.21.2-.42.31-.41.39.2,1.69.42,3.37.64,5.05.3,2.28.59,4.57.91,6.85a7.08,7.08,0,0,0,.48,2.54A6.22,6.22,0,0,1,361.8,65,4.47,4.47,0,0,0,362.82,68.61Zm-189.29,16v-.3c-.26-.08-.53-.28-.76-.23a3.07,3.07,0,0,0-2.24,3.78c.28,1,.51,2,.83,3,.21.66.66,1.84.82,1.81,1.06-.2,1.12-1.25,1.09-2.05a26.86,26.86,0,0,0-.58-4.26C172.5,85.54,172.52,84.91,173.54,84.63Zm15-71.8a32.46,32.46,0,0,0,4.68-7.93c.14-.35-.12-1.24-.3-1.27a2.92,2.92,0,0,0-1.61.28c-.25.11-.37.59-.46.93-.23.93-.43,1.86-.61,2.8-.36,1.89-.58,2.09-2.51,2.18ZM356.83,57.42c.51-.35.88-.57,1.21-.85s.39-.42.37-.61a.77.77,0,0,0-.47-.56,2.3,2.3,0,0,0-1,.15c-.77.26-1.51.62-2.3.83-4,1-8.28-.24-12.24,1.34-.2.08-.48-.06-.71,0-1.33.23-2.66.47-4,.73-.12,0-.19.28-.34.53a10.88,10.88,0,0,0,1.31,0c5.08-.68,10.17-1.34,15.25-2.09C355,56.69,356.1,56.41,356.83,57.42ZM184.26,12.88c1-.05,1.53-.31,1.57-1.26,0-.39.4-.76.57-1.16.8-1.92,1.58-3.85,2.39-5.82-1.86-.39-2.57-.16-2.88,1C185.3,8,184.82,10.39,184.26,12.88ZM162.63,96.51c-.57-.59-1-1-1.42-1.49a7.15,7.15,0,0,1-.5-.81c-.64-1-1.43-.44-2.12-.13s-.56,1-.24,1.53c.48.83,1,1.63,1.48,2.46a2.3,2.3,0,0,0,2.43,1.24Zm-5.29,14c-.63,1.26-.4,2,.73,2.57,1.44.77,2.76,1.76,4.14,2.63,1.61,1,2.5.67,3.11-1.31C162.11,114.3,159.75,112.42,157.34,110.5Zm14.78-2.15c1.81,1,4.43-1.69,5.91-5.75l-3.13.22,1,2.4-3.74-.43L172,105l1.8,1.94ZM162,102.7a1.72,1.72,0,0,1-2.28-1.48c-.39-1.5-1.27-1.64-2.51-.44l3,2.57-3.17,5c1.42,0,2-.45,2.6-2a1.73,1.73,0,0,1,.82-1C162.28,104.8,162.3,104.84,162,102.7Zm26.46,31-.25-.36c-.38,0-.83-.22-1.11-.08-1.24.61-2.19.12-3.19-.58a1.83,1.83,0,0,0-2.38.06,5.54,5.54,0,0,0,1.06.71,14.26,14.26,0,0,0,2.29.65c.83.15,1.07.7.69,1.26a5,5,0,0,1-1.63,1.35,4.65,4.65,0,0,1-1.44.26c.76.6,1.1,2,2,1.2A43.51,43.51,0,0,0,188.41,133.67Zm248.92,18.5c.31,2-.13,2.36-1.81,1.95a20.36,20.36,0,0,0-7.33-.62c-1.78.21-3.63-.33-5.46-.44-1.24-.08-2.49,0-3.73,0l0,.36a8.1,8.1,0,0,0,1.32.18c3.87-.1,7.71.78,11.59.43a3.31,3.31,0,0,1,.81.2,20.64,20.64,0,0,0,3.51.62c2.58,0,2.42-.2,2.39-2.46ZM201.23,48.09l-.29-.47a3.3,3.3,0,0,1-.85.45c-.46.09-1.09.27-1.4.06a2.4,2.4,0,0,0-2.58-.06,9.83,9.83,0,0,1-5,1.24,3.34,3.34,0,0,0-1,.25l0,.4a5.9,5.9,0,0,0,1.06.1c2.69-.22,5.38-.39,8-.74C199.91,49.21,200.55,48.52,201.23,48.09Zm166.49,9,.42.22c1.17.58,2.31.12,3.48,0,3.15-.44,6.32-.79,9.48-1.17.51-.06,1,0,1.54-.09l3.11-.25,0-.42c-1.37-.43-3.06,1-4-.46a21.07,21.07,0,0,1-2.35.94,6.23,6.23,0,0,1-1.9.15c-2.88-.15-5.6,1.26-8.5.84A4.15,4.15,0,0,0,367.72,57.11ZM276.8,107.57v.33c2.93,0,5.87,0,8.8,0a15.64,15.64,0,0,1,2.45.43l-.07-1.41c-2.32,1-4.23.64-5.65-1.22h5.27v-.29H279.3v.32c2.37.37,2.4.39,1.72,1.82Zm27.19,35c-.95,0-1.09.65-1.11,1.47a9.22,9.22,0,0,1-.36,1.6,24.15,24.15,0,0,0-.56,3c-.14,1.8-.11,3.62-1.08,5.25a6.72,6.72,0,0,0-.36.91c1.39-.73,1.32-.74,1.46-2.07a6.13,6.13,0,0,1,.74-1.8c.1-.2.38-.36.4-.55C303.42,147.76,303.7,145.16,304,142.56Zm-114.49-38a8.5,8.5,0,0,0,1.06-1.69,1.5,1.5,0,0,0-.39-1.08c-1.49.15-1.66-.81-1.85-1.92a2.1,2.1,0,0,0-.88-1.15c-.11-.08-.8.37-.93.69s-.37,1.23-.13,1.56C187.3,102.2,188.39,103.31,189.49,104.56Zm184.81,29a2.6,2.6,0,0,0-.66,2.8.77.77,0,0,1,.05.56c-.57,1.09.2,1.22.92,1.19a6.23,6.23,0,0,0,1.57-.49l-.56-1.5,2-1.13a8.85,8.85,0,0,0-1.57-1.16A7.26,7.26,0,0,0,374.31,133.6Zm-89.25-19.36-.07.18a5.79,5.79,0,0,1,1.37.62,1.4,1.4,0,0,1,.49,1c0,.25-.5.62-.81.66-1,.11-2.07.11-3.1.11-2.45,0-4.91,0-7.36,0a5,5,0,0,0,2.36.6c3-.09,6-.26,9-.39,1.65-.07,1.93-.37,2.05-2,0-.59-.08-.9-.76-.87C287.21,114.27,286.13,114.24,285.06,114.24ZM327,51l.1-2.26-4.31.95,0,.2H325l0,.19-3.45,1.82c.69.57,1.58,1.62,1.85,1.47.76-.39,1.7,1.1,2.27-.38l-2.7-.35-.08-.44Zm45.64,73.49c.15-.5.16-.93.35-1.06a2.54,2.54,0,0,1,1-.12l.92-.08c-1.61-.62-3.39.21-5-1.11l.35,2h-3.1l0,.49,12.52,1.14-2.89-1C375.41,125.19,374.15,124.58,372.66,124.48ZM162.15,92.57a11.19,11.19,0,0,1,1.32,2.52,2.5,2.5,0,0,0,1.79,2.08c.16-.43.54-.91.45-1.28-.39-1.65-.9-3.27-1.42-5.07ZM390.93,117l-.33,0c0,.33,0,.67,0,1,0,1.13.46,2.52,0,3.33-.84,1.36-.63,2.75-.82,4.11a33.63,33.63,0,0,0-.05,4.72,2.26,2.26,0,0,0,1-2.36,13.58,13.58,0,0,1,.29-5.1C391.63,120.71,391.16,118.9,390.93,117Zm-42.44,15.63c-.73-.73-1.12-.8-2.12-.33-1.64.77-1.86,1.22-1.58,3.49l2.68-.22ZM137.86,61.75l.37-.24a8.93,8.93,0,0,0-.84-1.59c-.29-.37-.88-.5-1.18-.86-1-1.26-2-2.58-3-3.93l-1.52,1.24C134.11,57.9,135.24,60.67,137.86,61.75Zm298.45,85.09,1.06.72-.17.22h-2.56c.66.3,1,.5,1.37.62,1,.32,2.46-.07,2.48-.69.06-1.41,0-2.82,0-4.22-3.79,1-7.31-.42-10.87,0l10.11.81ZM132.71,62.26l.27-.32-2.83-4.42a5.69,5.69,0,0,0-.4-.59,2.22,2.22,0,0,0-3.26-.32c2.29,1,3.38,3,4.82,4.75A5.6,5.6,0,0,0,132.71,62.26ZM238.06,148c3.6.8,14.19.14,14.47-.37-1.52-.91-3.51.54-5-.74a4.24,4.24,0,0,1-1.31.52c-2.43.09-4.86.09-7.29.16C238.67,147.57,238.37,147.84,238.06,148Zm17.85-77.22a1,1,0,0,0-.32.56c0,.82,1.53,2.42,2.33,2.45a2.92,2.92,0,0,1,1.1.07c.78.38,1.5.87,2.3,1.36l.33-1.61Zm18.35-17.5-4.12-3.68-.17.14.54,1.11-2-.21,4.78,4.23ZM196.16,94.2c-2.35-.17-4.63,3.07-4.73,6.66Zm79.17,33.05.05.52c.29,0,.59,0,.88,0,3.55-.28,7.1-.55,10.65-.9.41,0,.78-.54,1.16-.83l-.2-.17Zm0-14.9c4.48.23,8.91.61,13.33-.05-.23-.35-.48-.69-.75-.7-1.29-.06-2.51.58-3.9.06-.75-.28-1.77.24-2.68.29-1.4.08-2.8,0-4.19.1A14.11,14.11,0,0,0,275.29,112.36Zm-22.83,37.79-.12-.55c-1.1.13-2.19.29-3.29.4-2,.21-4.06.47-6.09.56-1.51.07-3-.12-4.55-.11a4.41,4.41,0,0,0-1.33.46l.11.37a7.71,7.71,0,0,0,.91.06c4.18-.21,8.36-.41,12.53-.66A8.47,8.47,0,0,0,252.46,150.14ZM174.84,81.59c3-.84,6.38-4.65,6.44-7.13ZM266.2,40c-.32-.6-.58-1.51-.83-1.51-1.25,0-1.63-1.12-2.48-1.6L261.46,36c-.62-.35-1.27-.64-1.85-1a16.73,16.73,0,0,1-1.46-1.25c-.64,1.91-.6,2,.86,2.56L258.81,35A16.11,16.11,0,0,0,261,36.36c1.72.74,2.63,1.94,2.5,3.61Zm32,95.32c-1.62-.5-3.35-1.83-4.59.56-.06.12-.25.17-.53.36l6.13,1.46-2.68-2.26Zm113.67,21.2c-.56,0-1,0-1.42.09s-.77.1-1.15.16v.3c2.84.26,5.69.54,8.53.78a6.22,6.22,0,0,0,1.5-.34l-1.21-.66.65-.81-.25-.3a9.13,9.13,0,0,1-1,.69c-.63.33-1.33.91-1.91.82a8.54,8.54,0,0,1-2.53-1.18,7.1,7.1,0,0,1-1-.77ZM288,124.22l0-.51a8.19,8.19,0,0,0-1.3-.12c-3.07.2-6.14.4-9.21.66a9.14,9.14,0,0,0-1.86.57l.11.33Zm108,27.3,0,.38,3.78.2c1.59.09,3.18.14,4.77.28,2,.18,4,.46,6,.65a5.38,5.38,0,0,0,1.37-.23l0-.47c-.61,0-1.23,0-1.84,0l-8.59-.53C399.59,151.69,397.77,151.61,395.95,151.52Zm-255.28-30c1.28,1,2.44,2,3.68,2.91.28.2.86,0,1.3-.06,0-.44.08-1-.12-1.31C144.92,122,142.15,121.17,140.67,121.52Zm232.39,21c1,1.6,2.57.85,3.89,1.07s2.84.36,4.25.62,2.57,1.26,4.07.88c.17-1-.52-1-1.17-1.13l-6.86-.88ZM197.62,3.47c-1.28.17-2.16.34-2.28,1.55-.07.71-.23,1.41-.29,2.12,0,.22.13.58.29.64a.75.75,0,0,0,.66-.26,31.49,31.49,0,0,0,1.89-3C198,4.25,197.71,3.77,197.62,3.47ZM322.92,128.71l-.14.47a8.14,8.14,0,0,0,1.84.54c1.72.09,2,.41,1.53,2-.06.22.3.8.47.81,1,0,2-.06,2.93-.11-.73-.25-1.53-.21-2.19-.5-1-.44-.68-1.26-.32-2.07l2,.65c1.17.38,1.17.38,1.5-.5ZM173.51,95.15c-.74,1.55.27,2.24.84,3.07.33.49,1,1.19,1.39,1.09.62-.16,1.1-.86,1.63-1.34l-.19-.32c-1,.12-2,.21-2.48-1A6.39,6.39,0,0,0,173.51,95.15Zm61.72,55.29-.13-.49c-1.19.13-2.39.32-3.58.37s-2.55,0-3.82-.08-3,.24-3.41.83c.88,0,1.63,0,2.36,0,1.75-.1,3.5-.33,5.25-.31a14.46,14.46,0,0,1,2.95.65Zm-98.42-24.84c-1.9-.49-3.33-1.44-5.18-1.54a2.29,2.29,0,0,0,1.88,2.23A3,3,0,0,0,136.81,125.59Zm138.55-15.88,0,.35a9.49,9.49,0,0,0,1.23.21c.82,0,1.65,0,2.47,0,.27,0,.53-.06.8-.07.68,0,1.37-.07,2.05,0,.3,0,.6.3.89.29,1.81-.08,3.61-.22,5.42-.33a1.43,1.43,0,0,0-1-.45c-3.64,0-7.28,0-10.92,0C276,109.66,275.67,109.7,275.37,109.72Zm-138,13.11-.23.59c1,1,2,2,3.56,2a1.14,1.14,0,0,0,.89-.57,1,1,0,0,0-.43-.9C139.95,123.52,138.67,123.19,137.4,122.83Zm165.66,6.66a2.27,2.27,0,0,0-2.77.86c-.93,1,.71,1.74.54,2.94l-4.18-.87a14.91,14.91,0,0,0,2.06.94c1.84.82,3,.3,3.6-1.71l-1.67-.77-.09-.41Zm-79.57,18.17,0,.47h12.9v-.47ZM408.33,45.72c2.4-.25,4.89.68,7.23-.62.46-.26,1.17-.07,1.76-.09l2.8-.1,0-.58C416.11,44.27,412.24,45.23,408.33,45.72ZM231.07,9.11l.35-.28c-.53-.95-1.06-1.9-1.62-2.83,0-.06-.33,0-.53,0l.49,1.34-1.88-.21.11.34-1.74.79c.61.12,1.42.29,2.24.42S230.21,9,231.07,9.11ZM213.06,132c-1.56.39-3.12.76-4.67,1.19-.21.06-.33.44-.5.67.29.11.59.34.85.3,1.22-.16,2.42-.43,3.63-.61C213.24,133.45,213.41,133,213.06,132Zm88.34-74.5c-1.68.79-1.91,1.21-1.75,3.16l3.18-.57Zm65.26-5.87L373,50l-.06-.27-7.05,1.08v2.68l1.52-.3Zm24.44,28.29V95.2h.45C391.22,90.11,392,85,391.11,79.95ZM306.6,68.26l-.61.07,1.37,10.45C307.48,75.24,307.7,71.68,306.6,68.26Zm-98.7,61.14c2.07.53,3.53-.45,5.13-.87a6,6,0,0,0-2.88-.89C209.45,127.7,208.84,128.62,207.9,129.39Zm-35.55-26.22c-.76-.56-1.47-1.13-2.22-1.62a3.56,3.56,0,0,0-1.29-.53c-.23,0-.52.23-.78.36a3.08,3.08,0,0,0,.41.64c.37.35.83.62,1.17,1C170.65,104.08,170.94,104.13,172.36,103.17Zm195.21,49.55,0,.36,4.81.57-.2-1.21A4.19,4.19,0,0,0,367.56,152.72Zm-80.41-9.24a27.08,27.08,0,0,1,2.82,0,19.19,19.19,0,0,1,2.31.54l0-.23-3.19-1.16c.73-1.83.16-2.3-3.29-2.21l3.14,1.26ZM310.23,139c1.18,0,2.26-.41,2.91,0,2,1.17,4.22.4,6.27.9a6.42,6.42,0,0,0-1.47-.44l-5.71-1.17-2.92-.58ZM385.09,142l0-.63c-2.44.46-4.63-1.75-7.16-.49C380.26,142.07,382.72,141.64,385.09,142ZM124.72,58.38a30.1,30.1,0,0,0-1.85-2.62c-.24-.28-.83-.3-1.27-.36-.08,0-.29.36-.3.56C121.25,57.05,123.49,58.72,124.72,58.38Zm234.67,75c0-.25,0-.32,0-.33a3.67,3.67,0,0,0-.66-.24L350,131.16C352.58,133.34,356.13,132.63,359.4,133.4Zm-97.09,6c-2,.74-2.34,1.28-1.93,3C262.42,142.64,262.8,142,262.31,139.36Zm21.28-5-1.52-.25c-.47-.08-.93-.2-1.4-.25-.73-.08-1.14.31-.87,1a1.83,1.83,0,0,0,3.09.38C283.1,135,283.29,134.77,283.59,134.4Zm105.7-1.86a20.76,20.76,0,0,0-.87,6.65C390,137,389.45,134.72,389.29,132.54Zm-223.63,19,0,.14c-.2,0-.43-.07-.59,0-.46.23-.89.52-1.33.78a14.15,14.15,0,0,0,1.59,1c.16.08.53-.16.74-.33.43-.34.81-.74,1.21-1.11Zm206.25-17.06-.15-.44-5.52-.54-.09.38c.11.14.21.36.34.39,1.44.29,2.89.6,4.35.79C371.17,135.08,371.56,134.66,371.92,134.46Zm-125,18.69-.06-.35c-1.7.1-3.41.25-5.11.28s-3.44-.09-5.46-.15c.53.28.91.66,1.3.67q3.05,0,6.11-.09C244.72,153.47,245.79,153.28,246.87,153.15ZM173.71,52.85a7.13,7.13,0,0,0-2.48.08c-.39.16-.45,1.11-.75,2l3-.57Zm73.3,93.2,7-.8C252.62,144.23,248.47,144.72,247,146.05ZM138.71,32.72c2,.74,3.51-.06,4-2C140.83,30.26,140.15,32,138.71,32.72Zm71.65-28c-1.45-.58-2.2-.09-3.08,1.95C208.69,7.46,209,7.24,210.36,4.69ZM199.69,7.06c.71-.88,1.36-1.62,1.93-2.42a.77.77,0,0,0-.1-.74.92.92,0,0,0-.75-.11C199.37,4.13,198.84,5.41,199.69,7.06Zm-37,93.34c.73,2.23,1.43,3.1,2.55,3-.17-.62-.39-1.21-.5-1.81C164.44,100,164.24,99.89,162.66,100.4Zm130.75,39.81a6.16,6.16,0,0,1,2,.57c.48.36.69,1.09,1,1.69l1-1.37-2.43-1.43,1.14-.94-1-.3.16.26Zm44-86.15c1.88,0,4.29,0,6.7,0,.29,0,.56-.42.85-.65l-.19-.49ZM232.18,10.81l-2.85-.33v.14l.9.47-.28,1.43,2.16.29Zm-64,99.56.94,2.18a17.38,17.38,0,0,0,1.84-.82,1,1,0,0,0,.37-.75c0-.15-.37-.39-.59-.42C169.93,110.46,169.15,110.44,168.15,110.37ZM130.32,35.16c2.26,1.13,4.09.63,4.94-1.2ZM363.86,79c0-1.69,0-3,0-4.4,0-.3-.38-.59-.59-.89l-.36.19C363.15,75.46,362.29,77.22,363.86,79Zm55,57.89c-1.82-1-4.95-1.11-5.7-.24a2.23,2.23,0,0,0,.65.23C415.49,136.85,417.15,136.84,418.87,136.84ZM182.48,56.34c1.43,2.22,1.83,2.47,3,1.87C184.55,56,184.2,55.75,182.48,56.34ZM238.74,145c.15,1.36,2.08,1.92,3.67,1l-.65-1ZM391,113.49c.83-2.22.39-4.22.26-6.21A5.34,5.34,0,0,0,391,109c0,.43.13,1-.1,1.27C389.78,111.35,390.63,112.24,391,113.49ZM304,69.25c.05-.56.24-1.18-.68-1.11-1.1.08-2.2.19-3.29.34a2.79,2.79,0,0,0-.83.45l.11.32ZM348,52.78l.05.33L357,51.68l-.1-.6Zm-216,98.74a2.82,2.82,0,0,0-3-3.58Zm159-11.93.14-.46c-.61-.45-1.16-1.12-1.84-1.29a6.17,6.17,0,0,0-2.22.29l0,.53Zm-91.24-.84c.54,1.58,1.61,1.84,3,.78C202,138.25,201.3,138.06,199.68,138.74ZM358,138.27l.07-.37-6.85-1.45-.1.5C353.5,137.08,355.57,138.61,358,138.27Zm-196-28a1.67,1.67,0,0,0,1.79,1.89c.22,0,.41-.36.61-.55l-1.92-2Zm96.52,32.57c-.25,1.5-.35,1.56-1.67,1.61a11.71,11.71,0,0,0-1.53.26l.09.5,4.58-.35ZM80.42,29c-1.17-.28-1.44.64-1.86,1.24a1.23,1.23,0,0,0,0,.95,12.78,12.78,0,0,0,1.83.2ZM225.56,154.4l-2.09-1.95-.41,2.51C224.2,155.05,225.2,155.56,225.56,154.4Zm-58.9-42.79-.41,3.23c1.18-.48,1.87-1.09,1.86-2C168.11,112.46,167.31,112.12,166.66,111.61ZM389.67,61l-.56-4.79C388.12,59.21,388.17,59.61,389.67,61ZM338,147.6l-.08.35,10.35,2.26.07-.3Zm26.08-62.46-.32-5.08C362.68,81.67,363,84.62,364.08,85.14ZM282.79,140.9a4.31,4.31,0,0,0-.25-.72c-1.8.31-3.59.66-5.39,1l.07.39Zm62.46-10,0-.28H339.6l4.47,1ZM368,144.51l8.4,1.58C373.77,144.63,370.84,144.76,368,144.51Zm-26.75-2.37a13.45,13.45,0,0,0,7.73,1.4ZM182.53,74.05l.22.23A22.64,22.64,0,0,0,184.84,73c.3-.23.41-.7.61-1.06-.44,0-1-.15-1.28.07A17,17,0,0,0,182.53,74.05Zm22.66,73.86c.69.76,1.19,1.37,1.76,1.89.18.16.58.08.88.1,0-.3.17-.65.06-.88C207.42,148,206.6,147.69,205.19,147.91Zm19.4-9,0-.28-1.71-.17a10.47,10.47,0,0,1-2.46-.27c-.88-.31-1.27,0-1.7.72Zm71-15.31-4.31-.76V124c.62-.06,1.3-.34,1.68-.11C293.83,124.41,294.53,124,295.54,123.56Zm128.42,22,0-.37-8.8-.57,0,.36Zm-82.61,7.59.09-.39c-2.33-1.1-5-.91-7.38-1.67l-.07.31ZM387.58,49l-.42,0,.82,4.7.45-.08C389.11,51.91,387.89,50.51,387.58,49Zm-71.76,85.71c2.08,1.13,6,1.51,6.44.81Zm-60.16,12.22c.13.24.26.64.37.64,1.7-.12,3.44,0,5-1Zm-116,10.06v-.38l-3.35-.18C136.92,158,137.62,158,139.65,156.95Zm115.19-7,.07.34c.66-.06,1.43-.37,2-.13,1.26.57,1.79-.41,2.57-.9C257.89,149.44,256.23,149.09,254.84,149.93Zm110-64.15-.29-.15-1.1,1,.78,2.55.3.06C365.15,88.16,364.76,86.93,364.89,85.78ZM188.82,49.55,185,48.45C186.39,50.42,187.16,50.65,188.82,49.55Zm-27.18,9.09-.21.52a21,21,0,0,0,2.06,1.18c.18.08.54-.27.82-.42-.15-.26-.24-.69-.45-.76A21,21,0,0,0,161.64,58.64Zm11.49,94.81c1.22.5,1.92-.38,2.73-.88.07,0,0-.56-.11-.61C175,151.61,173.43,152.5,173.13,153.45ZM438.7,137.89l-.07-.41c-1.15,0-2.31-.09-3.45,0-1.53.15-1.53.22-1.4,1ZM343,136.19l.07-.38c-1.86-.38-3.64-1.22-5.62-1l-.07.37Zm-63.36,2.64c-1-.7-.95-2.7-2.56-2l1.8,1.62-1.77.67.13.37Zm-83.43,8.76-3.38.34C194,149.37,195.23,149.22,196.2,147.59Zm-41.75-123,.59.24.93-2.14-1.7-.46-.12.36.72.84Zm13.13,82.6c.76-.93.39-1.9-1-3C165.7,105.54,167,106.13,167.57,107.14ZM22.17,32.08c1.08,1.59,2.12,1.48,3-.24Zm142.73,76c.67,1.52,1,1.68,2.31,1C166.33,107.53,166.11,107.43,164.91,108.08Zm182.24,33.11,0-.43-7.14-.71,0,.37Zm-187,13.18c-1.1-1.12-1.86-.39-2.74.25l1.38,1Zm51-98.8-3.3.73C209.45,57.46,210.34,57.27,211.18,55.58Zm90.49,71.54,0-.38-5.6-.62,0,.53Zm5.55-5.09-.4-.07-.8,3.81C307.32,124.93,307.52,124.06,307.23,122Zm-34.72-11.47-3.89-2C268.78,109.88,270.65,110.89,272.51,110.56ZM204.88,4.74c-1.4.66-1.86,1.34-1.69,2.51C205.25,5.93,205.39,5.72,204.88,4.74ZM371.57,139.95c-1.67-1-5.38-1.41-5.78-.71Zm-7.66-35.66v5.59a1.24,1.24,0,0,0,.34-.93c0-.45-.15-1,0-1.34C364.9,106.49,364.48,105.58,363.91,104.28ZM324.32,136.9l4.19.2C327.35,136,324.87,135.91,324.32,136.9ZM124.6,92.82l-2.88.92.86,1.11C123.32,94.13,124.58,94.15,124.6,92.82Zm12,29.73-3.15-2.06C133.93,122.36,134.86,123,136.57,122.55Zm184.51,26.17c-1.71-1.46-3.59-1.06-5.37-1.22l-.06.31ZM147.21,65.88l0-.58c-1.3.06-2.6.12-3.9.2-.08,0-.22.24-.21.36s.17.32.25.31C144.61,66.1,145.91,66,147.21,65.88Zm61.86,3.58a2.18,2.18,0,0,0-2.43-.72,4.48,4.48,0,0,0-1.05.63l.19.41ZM174.76,52.21l2.79-1.52C176.13,49.71,175.45,50.07,174.76,52.21Zm121.12,92.5,3.61,1.38C298.22,144.37,297,144,295.89,144.71Zm52-94-.08-.35-6.74.82,0,.4Zm-71.8,92.95.12.34c1.68-.65,3.62.15,5.27-.73l-.08-.47Zm39.8-87.2c1.82.32,3.46.45,4.89-.91ZM175.17,15.92c1,1.53,1.56,1.5,2.74,0ZM153.84,90.31c.85,1.49,1.06,1.58,2.17,1C155.29,89.86,155.06,89.75,153.84,90.31ZM430.69,150l0,0,7.56.45V150ZM397.06,50.31h7.7C404.1,49.54,398.31,49.77,397.06,50.31Zm-90.88,17c.78-1.86,0-3.64-1-5.27Zm5.18,73.16,0,.4,4.4.51C314.4,139.85,312.82,140.68,311.35,140.47ZM70.39,32.31c.08,1,.48,1.45,1.6,1.14.68-.19,1-.41.58-1.14Zm133.86,94.8c-1.07-.9-1.2-.86-2.16.51l1.09.87ZM123,54.73a1.58,1.58,0,0,0,2.15.7c.18-.06.28-.37.42-.57-.62-.15-1.23-.33-1.85-.43C123.53,54.4,123.31,54.59,123,54.73Zm314,87.38c1,.92,1.48.06,2-.68l-.79-1.25ZM314.5,136.45l-.05.61,3.22.52.1-.62Zm39-82.31v.16c1.14,0,2.28,0,3.42,0a2.85,2.85,0,0,0,.94-.43c-.37-.22-.79-.67-1.11-.61A33.37,33.37,0,0,0,353.53,54.14Zm-61.36,71.24,0,.37c1.12,0,2.06,1.62,3.61.07Zm-115,20.16,0-.38c-.42,0-1-.21-1.22,0a6.9,6.9,0,0,0-1.13,1.42l.34.28Zm51.92-45.37-1.26,1.94,1.81.69ZM150.36,123c-.11-.61-.08-1.18-.25-1.25a9.72,9.72,0,0,0-1.83-.38c0,.25,0,.65.13.73A18.75,18.75,0,0,0,150.36,123Zm60.91,13.16c.87.23,1.59.23,1.91-.69,0-.13-.21-.51-.39-.55C211.89,134.67,211.39,135.09,211.28,136.13Zm64.44-3.87,0,.42c1.1-.24,2.49,1.12,3.42-.79Zm62.26-.06-.12.44a4,4,0,0,0,3.87.37ZM94.09,87.78l.08.41a14.94,14.94,0,0,0,2.22-.41c.14,0,.06-.74.1-1.34Zm44.2-51.33,0-.4a8,8,0,0,0-1.61-.53c-.27,0-.59.32-.89.49.24.2.48.56.74.58A9.88,9.88,0,0,0,138.29,36.45Zm62-25.25.13-.43c-.37-.16-.85-.55-1.09-.44A6.31,6.31,0,0,0,198,11.5l.25.3Zm71.1,134,0-.3-4.56.46C268.34,146.14,269.84,145.6,271.34,145.23Zm87.39-9.77,0-.43c-1.38-.09-2.75-.53-4.15-.25l0,.42ZM7.16,27l-.05-.36c-1.76-.5-1.92-.46-2.7,1Zm262.6,17.09-.88,1.64.92.78.71-1.81Zm96.73,11.29H370C368.6,54.42,367.55,55.11,366.49,55.41Zm15.32,83.12-.06.48,3.54.47C384.35,138,383,138.79,381.81,138.53Zm-98.65-6.94.08.35a4.83,4.83,0,0,0,3.66-1.21Zm69.51,15.1.14-.26-5.51-1.06-.07.42Zm-235-111,.2-.4-1-1.78-.4.09a5.86,5.86,0,0,0,.15,1.69C116.72,35.53,117.33,35.57,117.71,35.7ZM234.4,95.88c-1.24.64-2,2.26-1.58,3.21Zm76.22,37.57-.13.61,3.57.61.05-.29Zm59.62,3.33-3.85-.53-.05.48C367.57,137.34,368.93,136.89,370.24,136.78Zm-.57-88.15v-.31l-4.58.42.05.48ZM148.88,158.91l.78-1.55-2-.27c0,.27,0,.41.09.49C148.06,158,148.41,158.36,148.88,158.91Zm156.26-22.7c-1.42,1.9-1.42,2-.13,2.74ZM211,87.76l-.34-.14a6.35,6.35,0,0,0-1.24.66c-.16.13-.08.54-.11.82a6.24,6.24,0,0,0,1.38-.49C210.87,88.49,210.88,88.05,211,87.76ZM187.34,52.29l2.3,1C189.75,51.92,189.35,51.72,187.34,52.29Zm150,97.42V150l3.67.7C339.85,150.25,338.74,149.31,337.37,149.7Zm8,3.9-.11.37,4.49,1,.09-.38ZM264.28,109.4c.59,1.4,1.6,1.81,2.74,1.09Zm-45.76,16.67,1.81-2.17-2,.37Zm157.93,24.45.06-.59-3.27-.37-.06.44Zm-15.91-8.84.48,0V138.5h-.3Zm-63.68,2h2.87C298.71,142.88,297.62,142.82,296.87,143.64Zm91,1.09c-.3,1.15-1.52,2.13-1,3.4l.36.06Zm-5.46,19.76c-.35,2-.35,2,.94,2.24ZM303.82,66.55l0-.42-3.71.32,0,.43Zm94.31,87.6c-2.5-.72-2.5-.72-3.4,0ZM383,37.24c.44-.61,1.68-.74,1.12-1.86l-1.12.16ZM156.13,152.55l.25-.48-2.87-1.41-.16.3Zm64.64-6.83h2.68l0-.35A2.71,2.71,0,0,0,220.77,145.72Zm90.52-16.42c1.25.42,2.46,1.23,3.85.52Zm-5,2-1.41.82,1.15,1.62ZM180.25,147.88l-2.2-1.12C178.73,148.53,179,148.63,180.25,147.88Zm95.53-83,.26-.27-2.7-2.42-.27.29Zm26.13,59.52-.06.35c1.07.89,1.25.92,2.26.18Zm6.31-25.72.43,0-.28-4h-.15Zm-22.62,2.47,1.77,1.85-.81-2.53Zm74.94,43.67.27-.12-.16-2.14-1.08,1.29ZM255,19.07l-.29.52,2.44,1.07.2-.4ZM386.25,154h-.32v3.4h.32Zm-.28-.64,1.53-.41-.73-1.63ZM367.24,57.18l-1.65.45,1.84,1.44ZM309.5,135.72l-.11.41,2.65.58C311.2,136.38,310.59,135.28,309.5,135.72ZM422.85,43.89c1.28-.09,2.61,1.06,4,0ZM290.66,131.35l-.07.44,2.92.44.05-.33Zm-.93-58.52.3-.24-2.12-2.92-.29.2Zm-81,3.12-.07-.42-2.1.28.07.39C207.39,76.24,208.17,76.62,208.77,76Zm204.6,69v-.1c-.59-.14-1.18-.32-1.78-.43s-1.18-.14-1.77-.21l0,.4Z"/><path d="M57.74,3.89c4.78-1.56,9.58-1.28,14.36-1.17a3,3,0,0,1,.8.23c1.13.36,2.16.6,3.19-.42a3.17,3.17,0,0,1,2-.63c2.8-.08,5.6,0,8.39-.08a5,5,0,0,1,4.2,1.6c.09-1.58,1-1.57,2.1-1.61,1.82-.06,3.63-.3,5.45-.43,2.07-.14,4.13-.34,6.2-.33,2.79,0,5.59.24,8.38.27,1.67,0,3.34-.27,5-.28q13.91,0,27.83,0c1.79,0,3.61,0,5.41,1.42a18.36,18.36,0,0,1-2,.24c-6.44,0-12.87,0-19.31,0-2.14,0-4.35.83-6.4.48-5-.86-10-.43-15-.62a2.8,2.8,0,0,0-1,0c-4.43,1.47-9.1.64-13.61,1.4-1.61.27-3.24.46-4.87.64a15.19,15.19,0,0,1-2,.05c-4.75-.1-9.5-.27-14.26-.28a33.17,33.17,0,0,0-4.25.65A3.13,3.13,0,0,1,67,4.9c-1.45-.5-2.89-1.06-4.62-1.7L62.92,5A5.65,5.65,0,0,1,57.74,3.89Z"/><path d="M55.88,4c-.12.08-.23.21-.36.23-4.32.73-8.52,2.17-13,2a46.44,46.44,0,0,0-8.6,0c-4.05.57-8,1.69-12,2.55a35.09,35.09,0,0,1-3.76.61,18.56,18.56,0,0,0-6.28,1.49,4.92,4.92,0,0,1-1.39.28c-1,.15-2.08.29-3.37.46-.35-.39-.34-1,.51-1.29C9.7,9.52,11.84,8.74,14,8a5.1,5.1,0,0,1,1.18-.11,9.6,9.6,0,0,0,2.71-.32C21.6,6,25.59,6,29.49,5.45A20.36,20.36,0,0,0,34.23,4.3c2.51-1,5.1-.86,7.68-.87,4.16,0,8.32,0,12.47.08a11.2,11.2,0,0,1,1.5.21Zm-18.34.62v.21h3.84V4.65Z"/><path d="M157.69,84.9l.37-1.33a2.82,2.82,0,0,1-1.42-2.75c0-.4-.54-.84-.89-1.19s-.8-.38-.94-.68c-.73-1.62-1.39-3.28-2-4.95-.08-.2.11-.51.21-.88a2.94,2.94,0,0,1,2,2.36,6.19,6.19,0,0,0,1.83,2.86c.68.66,1.16,1.53,1.81,2.22.25.27.75.31,1.14.45.16-.44.51-.92.43-1.32a3.36,3.36,0,0,0-.85-1.42c-1.72-2-2.22-4.37-2.58-6.84a1,1,0,0,1,.23-.83.92.92,0,0,1,.83.13,2.78,2.78,0,0,1,.8,1,17.54,17.54,0,0,1,.62,1.81,10.51,10.51,0,0,0,5,6.41,13.26,13.26,0,0,1,2.2,1.44c.27.22.32.71.47,1.07a3.13,3.13,0,0,1-1.14.37c-1.15-.11-1.6.21-1.54,1.27.11,1.78-1,2.5-2.64,1.78a6.82,6.82,0,0,0-1.19-.55c-.91-.19-1.85-.29-2.77-.42Zm2.94-3.9c.15,2,.91,2.5,2.65,1.75Z"/><path d="M105.28,111.61l-1.2-7.93-2.43,1.21c.56,1.11,1.1,2.19,1.64,3.28.46.93-.15,1.4-.8,1.86a1,1,0,0,1-1.62-.44,6.33,6.33,0,0,1-.71-2.09,44.69,44.69,0,0,1-.66-4.84,10.58,10.58,0,0,1,2.2-6.77c.32,2.47-1.59,4.78.57,6.82l1-1.95.63,2,2.13-2c1.06,1.7,1.3,3.1.49,4.67a3.61,3.61,0,0,0,0,1.72,8.78,8.78,0,0,1,.2,2,13.4,13.4,0,0,1-.9,2.4Z"/><path d="M157.7,84.9,161,87.82c-.72,1.41-1,1.51-2.24.62-2-1.49-4.19-2.77-5.78-4.59-1.36-1.56-2-3.74-2.92-5.68-.13-.28.11-.73.24-1.4a28.85,28.85,0,0,0,7.38,8.13Z"/><path d="M143,109.95c.53.35,1.08.67,1.58,1,.28.21.46.64.76.74a2.71,2.71,0,0,0,1.44,0c.16,0,.23-.66.23-1,0-.58-.08-1.16-.14-2l3.4,1-3.16,3.62c.59.36,1.14.65,1.65,1a1,1,0,0,1,.26,1.64c-.53.59-1.29,1.33-2,.49-1.48-1.72-2.81-3.57-4.17-5.39-.14-.19-.09-.52-.13-.79Z"/><path d="M134,42.26l-1.41.4c-3.29,1-6.57,1.91-9.86,2.85a5.43,5.43,0,0,1-1.86.33c-.42,0-.8-.49-1.19-.76.29-.32.54-.83.88-.92,3.25-.78,6.51-1.51,9.78-2.2a15.5,15.5,0,0,1,2.49-.27,5,5,0,0,1,1.15.21Z"/><path d="M87.59,58.16l11.29-9c.16-.12.3-.32.48-.35.53-.08,1.07-.09,1.61-.13-.29.35-.51.84-.89,1a17.88,17.88,0,0,0-5.72,5,11.59,11.59,0,0,1-5.62,3.67,5.28,5.28,0,0,1-1.08.11Z"/><path d="M185.47,120c.59-1.58,1.13-1.73,2.25-.49,1.65,1.82,3.9,2.21,6.13,2.67.34.07.7.09,1.13.14-.11,1-.47,1.51-1.5,1.47-.43,0-.87.2-1.29.16a4.18,4.18,0,0,1-1.92-.39C188.62,122.44,187.07,121.19,185.47,120Z"/><path d="M47.59,17.7c1.95.46,1.86.44,1.48,2a5,5,0,0,0,1,4.63,2,2,0,0,1,0,3,1.68,1.68,0,0,1-1.85-1.61C48,23.08,47.79,20.46,47.59,17.7Z"/><path d="M143.08,79.83c.29.4.5.68.7,1a4.46,4.46,0,0,0,2,1.9c.92.4,1.56,1.43,2.31,2.19a3.71,3.71,0,0,1,.52.64c.22.36.41.75.61,1.12a15,15,0,0,1-1.6.59c-.18,0-.46-.14-.64-.28a12.13,12.13,0,0,1-4.15-6.67C142.8,80.22,142.92,80.1,143.08,79.83Z"/><path d="M177,111.19l1.43,4.18c.12,0,.58.1,1,.24a1.93,1.93,0,0,1,1.52,2.24c-.11.4-.5,1-.8,1a1.74,1.74,0,0,1-1.28-.6,5.19,5.19,0,0,1-.66-1.52c-.22-.57-.23-1.32-1.19-1.14a.45.45,0,0,1-.37-.24c-.14-1.25-.26-2.5-.33-3.76C176.31,111.5,176.67,111.38,177,111.19Z"/><path d="M87,59.44c1.63,1.63,1.8,3.23.56,4.61-.8.89-1.51.77-3.28-.64Z"/><path d="M178.92,8.35A24.74,24.74,0,0,1,180.49,6c.25-.3.78-.36,1.18-.53.17.44.57.94.48,1.32a26.54,26.54,0,0,1-1.07,3.06Z"/><path d="M181.9,115.74a9.57,9.57,0,0,1-1.24-2.14c-.12-.44.32-1,.51-1.55.52.25,1.27.37,1.52.78C183.29,113.85,182.91,114.81,181.9,115.74Z"/><path d="M14.35,22.24c1.17,2.38,1.18,3.27.05,4.06C12.71,24.42,12.7,23.32,14.35,22.24Z"/><path d="M157.12,141.37a3.49,3.49,0,0,1-3.69-2.83A3.6,3.6,0,0,1,157.12,141.37Z"/><path d="M180.17,120.39l1.56-1.64,1.92,1.7C182.57,122.28,182.34,122.28,180.17,120.39Z"/><path d="M86.65,24.89l1.41-2.5a11.56,11.56,0,0,1,1.06,2.24A.93.93,0,0,1,88,25.82C87.63,25.76,87.28,25.33,86.65,24.89Z"/><path d="M105.92,85.7l-1.39-1.6c-.15-.18-.28-.37-.58-.75.54-.33,1.34-1,1.47-.88a4.72,4.72,0,0,1,1.33,1.85c.15.38-.22,1-.36,1.45Z"/><path d="M182.28,116.44c.68-.3,1.26-.78,1.82-.75s1,.59,1.53.91a8.07,8.07,0,0,1-1,1,1.12,1.12,0,0,1-1.67-.35Z"/><path d="M141.09,17.46c.51.77.44,3.32-.08,3.84-.13.12-.8,0-.8-.09a23.83,23.83,0,0,1,0-3.08C140.27,17.9,140.76,17.71,141.09,17.46Z"/><path d="M57.19,24.56l1.57,1.72c-.79.37-1.45.71-2.14,1-.06,0-.39-.51-.5-.81C55.78,25.48,56.47,25.08,57.19,24.56Z"/><path d="M54.12,24.23l-1.49,1.21c-.31-.44-.84-.87-.86-1.32s.48-.91.75-1.37Z"/><path d="M107.54,97.94l-.62,1.22-2.48-.71.35-1.59Z"/><path d="M37.31,24.33c-.08.74.41,1.84-.81,1.95-.46,0-1-.79-1.51-1.22L37,24Z"/><path d="M149.32,16.79a8,8,0,0,1,0,1.87c-.09.35-.56.6-.87.89-.25-.3-.65-.58-.72-.92C147.47,17.52,148,17,149.32,16.79Z"/><path d="M89.1,72.22l.55-1.49c.26.48.54.95.77,1.44a1.46,1.46,0,0,1,.15.69,5.61,5.61,0,0,1-.21,1.29c0,.08-.54.15-.58.08A6.12,6.12,0,0,1,89.27,73a2.55,2.55,0,0,1,0-.71Z"/><path d="M17.77,25l1.52-1.24,1.23,2.33C19.13,26.79,18.6,25.72,17.77,25Z"/><path d="M60.26,26.73c1.15-.31,2.07-.85,2.45.18.17.46-.48,1.21-.75,1.83Z"/><path d="M148.81,72.94V68.87C149.77,69.65,149.83,70.86,148.81,72.94Z"/><path d="M113.29,81.55l1.18,3.24C113,84.83,112.43,83.5,113.29,81.55Z"/><path d="M156.24,15.38l1.24,1.47-1.11.9C155.05,16.54,155,16.42,156.24,15.38Z"/><path d="M110,86.48l-.62-2.16a1.18,1.18,0,0,1,1.74.9C111.36,86,111,86.48,110,86.48Z"/><path d="M31.82,22.91l1.71,1.44-2,1.1V23.09Z"/><path d="M119.18,87.29l-.28-3.12C120.74,85.06,120.8,85.49,119.18,87.29Z"/><path d="M94.19,74.42c-1.41-.1-1.08-1.4-1.73-2C94.19,71.88,94.4,72.83,94.19,74.42Z"/><path d="M169.26,124.72c.52.17,1.43.26,1.48.52a4.93,4.93,0,0,1-.35,1.86l-.36,0-.94-2Z"/><path d="M100.19,79.31,99,79.77c0-.92-1.17-1.75.19-2.71Z"/><path d="M115.49,24.34l-1.54,1.34v-3Z"/><path d="M112.18,98.55c-1,1.9-1.47,1.91-2.8.14Z"/><path d="M122,22.16c.29,1,1.39,1.64,0,2.48l-1-1.28Z"/><path d="M89.87,65.82c.06.75.16,1.5.16,2.25,0,.17-.36.34-.55.51-.16-.21-.47-.42-.46-.62,0-.7.19-1.4.29-2.1Z"/><path d="M165.35,124.68l.77,1.91-.27.33c-.4-.27-1-.47-1.13-.84s.1-.94.18-1.41Z"/><path d="M172.86,122.4c-.42-.14-1.1-.18-1.2-.44a4.92,4.92,0,0,1-.06-1.7l.34-.08,1.1,1.91Z"/><path d="M167.86,130l-1.2-1.76.8-.91a8.61,8.61,0,0,1,.77,1.52C168.3,129.08,168,129.43,167.86,130Z"/><path d="M145.48,72.45l-.78,1.34a6,6,0,0,1-.38-1.43c0-.29.32-.59.5-.89Z"/><path d="M64.61,23.89c1.33.24,1,1.32,1.36,2C64.87,26.12,64.8,26,64.61,23.89Z"/><path d="M132.68,19.07l1.44,2.07C132.48,21.34,132.28,21.11,132.68,19.07Z"/><path d="M141.15,77.43l-.31-2.29c.89,0,1.12.94.64,2.23Z"/><path d="M70.4,27.81c-.94.11-1.68-.67-1.47-1.36,0-.13.21-.31.3-.3a.84.84,0,0,1,.57.26A12.65,12.65,0,0,1,70.4,27.81Z"/><path d="M127.65,85.73l-1-2.24C128,83.58,128.43,84.29,127.65,85.73Z"/><path d="M148.67,144.53c-1.24.39-1.63,0-2.18-1.83Z"/><path d="M220.53,34.5c.32,3.25,0,4.21-2.32,4.65-.84.16-2.16-.83-2.84-1.64-.94-1.11-.38-2.74,1.1-3.94l.32,2.48Z"/><path d="M226.15,13.73,226,15.15l-5.87-.58.2-1.44Z"/><path d="M206.9,37.33c-.7.44-1.39.91-2.12,1.3a.89.89,0,0,1-.81,0c-.18-.17-.3-.68-.19-.81a3.28,3.28,0,0,1,1.37-1.12,4.58,4.58,0,0,1,1.75.25Z"/><path d="M198.33,39.24h3.17l-1.76,1.86Z"/><path d="M190.92,40.14c-.29-.42-.9-1-.79-1.23a6.23,6.23,0,0,1,1.38-1.39l.37.29-.56,2.1Z"/><path d="M200.87,36.82l-.69,1.7-1.63-1.82Z"/><path d="M185.35,38.33c-.54-.85-1.2-1.63-.22-2.59C186.16,36.72,186.21,37.17,185.35,38.33Z"/><path d="M194.83,36.28c1.28,1.24,1.29,1.32.33,2.08C194.27,37.82,193.94,37.18,194.83,36.28Z"/><path d="M411.92,89.83c.75-.22,1.51-.42,2.26-.65l5.06-1.57a16.93,16.93,0,0,1-.65-2.08c-.27-1.7-.43-1.91-2.14-2.2-.7-.12-1.41-.18-2.11-.26-.11-1.62.5-2.23,1.92-1.85,1.73.47,3.5.89,4.24,2.89.13.36.71.55,1.23.92,0,.79,0,1.79,0,2.79,0,2.4-2.86,4.77-5.2,4.18-1.57-.39-3.07-1-4.6-1.58Z"/><path d="M419.08,100.13l-6.9.35c.12-1,.81-1.3,1.65-1.43A7.87,7.87,0,0,1,419.08,100.13Z"/><path d="M423.29,50.1l-4.75.32c1.16-1,2.26-2.07,3.89-1.72.41.09.72.68,1.07,1Z"/><path d="M415.1,49.27l.17,1.45c-.87.12-1.65.18-2.42.34-1.07.22-1.45-.25-1.43-1.37Z"/><path d="M431,47.56l.51,1.84c-2.32.52-3.14.3-3.45-1Z"/><path d="M245.34,90.72l-2.87-3.59-.09,1.78-1.1-.65c-.34.37-.68,1-.9.92a2.61,2.61,0,0,1-1.5-.78c-1.26-1.54-2.42-3.17-3.71-4.88l1.11-.71,1.24,1.09-.3-2.48L240.63,85l2.23-.55-3.11-3.68s.23-.62.46-.63a2.89,2.89,0,0,1,1.64.38c.65.43,1.18,1.51,1.75,1.5s1.27-.92,1.91-1.44a1.75,1.75,0,0,1,.26-.11c.61,1.11,1.73.71,2.74.82a1.8,1.8,0,0,1,1,.69,3.62,3.62,0,0,1,.46,1.1c1,2.72.12,4.56-2.6,5.43-1,.31-1.83.53-1.78,1.78,0,.12-.19.24-.29.36Zm1.87-8.25c-1.76.42-2,.95-1.61,2.9L247.39,84Z"/><path d="M255.68,114.26l1.84.34c.11,2,.28,3.95.3,5.91s-.1,4-.17,6.22l.72.28c-1.63,3.22-1.4,6.64-1.37,10.15l-2.26.2c0-1.23,0-2.37,0-3.51a.54.54,0,0,1,.1-.34c1.52-1.63,1-3.68,1-5.55.06-4.35-.1-8.71-.16-13.06C255.65,114.7,255.67,114.51,255.68,114.26Z"/><path d="M255.71,100A2.58,2.58,0,0,0,257,97l1.3-.18c.07.6.1,1.11.18,1.61.15.87,1.12,1.28,1.67.61,1-1.23,2.25-.95,3.62-.85-.38,1.31-.73,2.56-1.11,3.81a.76.76,0,0,1-.34.43,4.8,4.8,0,0,1-5.5-1.29C256.53,100.75,256.16,100.45,255.71,100Z"/><path d="M252.83,101.27V99.43c1.11-.19,3.65,1.24,3.87,2.25.08.38-.14,1.14-.37,1.21a2.57,2.57,0,0,1-1.59-.18c-.37-.16-.56-.67-.9-.94A5,5,0,0,0,252.83,101.27Z"/><path d="M248.27,94.17c-.33-1-.09-1.55.93-1.69.56-.07,1.2-.15,1.23-1,0-.15.54-.28.56-.28.62.75,1.13,1.32,1.57,1.93a.85.85,0,0,1,.08.74,1,1,0,0,1-.68.49C250.72,94.33,249.48,94.24,248.27,94.17Z"/><path d="M274,75.66l2-.7,1.3,3.18-1.26.7Z"/><path d="M256.55,103.91a3,3,0,0,1,3.71,2.13c.05.37-.34.8-.62,1.39Z"/><path d="M272.62,67.41l-2.56-2.79c1.05.19,2.12-.85,2.83.37C273.28,65.64,274.29,66.59,272.62,67.41Z"/><path d="M280.45,84.79l.23,2.45h-2.06c-.37-1.62-.37-1.62,1.87-2.42Z"/><path d="M333.81,75.81c0,1.46,0,2.92,0,4.38a9.06,9.06,0,0,0,.87,4.89c.08.13.19.34.13.44-1.2,2.18-.12,4.52-.6,6.74a1.13,1.13,0,0,1,.76,1.89c-.92,1.37-.75,3.87-.07,5.26.33.67-.08,1.72-.21,2.6-.08.52-.37,1-.39,1.54-.22,4.59-.4,9.17-.59,13.76a8,8,0,0,1-.15.93c-1.6-.34-1.88-1-1.23-3.18l-2.07-.89c2.41-.06,2.17-1.48,2.19-2.93.07-7.83.27-15.65.29-23.48,0-2.66-.36-5.31-.55-8a14.09,14.09,0,0,1-.11-3c.07-.47.76-.84,1.17-1.26Z"/><path d="M315.3,75.29c.84,0,1.63,0,2.4,0a3.15,3.15,0,0,0,3.24-2.49c.14-.59.07-1-.57-1.21s-1.37-.63-2.08-1a3.23,3.23,0,0,1,4.71.83c1.29,1.95.49,4.91-1.72,6.32S317.21,78.46,315.3,75.29Z"/><path d="M330.14,60.45c.53-.09.88-.17,1.24-.22a2.6,2.6,0,0,1,.48,0,27.84,27.84,0,0,0,.45,4.1,37.31,37.31,0,0,1,.92,7.29,23.09,23.09,0,0,1-.21,3.07c-1.05.18-1.38-.1-1.37-.9,0-2-.08-3.92.05-5.87.06-.86-.65-1.21-.76-1.86C330.63,64.26,330.41,62.4,330.14,60.45Z"/><path d="M326.8,112.07l-5.66-.82.48-1.41,3.78.27C326.9,110.21,327.34,110.79,326.8,112.07Z"/><path d="M322.64,55.62c1.4,0,2.68,0,4,0,.79,0,1.1.28,1,1C324.55,58,323.8,57.83,322.64,55.62Z"/><path d="M325.41,116.64H331c-.08,1.2-.62,1.77-1.68,1.53-1.38-.31-2.71-.82-4.06-1.24Z"/><path d="M327.54,114.87h-5v-1.12C324.32,113.51,326.18,112.81,327.54,114.87Z"/><path d="M326.72,124.8c.34-.72.56-1.91,1.06-2,.82-.21,1.82.26,2.75.44v.45l-1.72.7-1.76.72Z"/><path d="M346.22,68.45a19.19,19.19,0,0,0,2.08-.37,4.26,4.26,0,0,1,4.16,1.83,3.88,3.88,0,0,1,.87,2.27,4.58,4.58,0,0,1-3.33,4.3,2.31,2.31,0,0,1-2.8-1,3.48,3.48,0,0,0-1-.95,3.12,3.12,0,0,1-.92-4.66C345.64,69.31,346,68.75,346.22,68.45Zm4.27,3.39a3.06,3.06,0,0,1-.31-.94c.05-1.23-.72-1.3-1.64-1.29-1.57,0-1.43,1.34-1.75,2.28a1.14,1.14,0,0,0,.29,1,1.22,1.22,0,0,0,1.06.16C348.94,72.72,349.69,72.27,350.5,71.84Z"/><path d="M350.44,119.79l-.57,1.52-9.09-1.07c.48-.91,1.06-1.73,2.44-1.5C345.58,119.11,347.94,119.43,350.44,119.79Z"/><path d="M343.05,105.33c-.33-1.07-.07-1.58,1.15-1.53,1.54.07,3.09,0,4.72,0v1.51Z"/><path d="M354.34,109.19v-1.41h6.19c.23,1.24.23,1.33-1,1.39C357.86,109.24,356.15,109.19,354.34,109.19Z"/><path d="M346,94V92.85h7.23V94Z"/><path d="M359.93,110.78c-1.5,2-2.26,2-6.18,0Z"/><path d="M339.68,122.32l.46-1.48,4.31.79-.25,1.52Z"/><path d="M351.22,118.46c-.21-1,0-1.49,1.05-1.41s1.82,0,2.79,0l.35,1.11C354,119.31,352.6,118.39,351.22,118.46Z"/><path d="M347.86,118.26l-3.77-.7.22-1.64a23.63,23.63,0,0,1,3.13.82C347.7,116.85,347.7,117.62,347.86,118.26Z"/><path d="M346.22,109.75l3.66.43-.25,1.64L346,111Z"/><path d="M359.88,117.77c-.72.44-1.44,1.23-2.16,1.22s-1.43-.81-2.14-1.26l.2-.36h3.86Z"/><path d="M379.83,61.17a21.86,21.86,0,0,1-10.54.74c.38-.39.58-.75.9-.91a5.69,5.69,0,0,1,3.08-.41,15.74,15.74,0,0,0,4.41-.77C379,59.49,379.67,59.82,379.83,61.17Z"/><path d="M376.4,110.76c-.36-.92.11-1.22.9-1.35,2.2-.38,3.18,0,3.52,1.35Z"/><path d="M415.69,117.78c2.77-.84,3.66-.45,5.08,1.53a4.92,4.92,0,0,1,1.23,3,7.91,7.91,0,0,0,.93,2.51h-.62c-.23.5-.44,1-.71,1.51s-.5,1.06-.87,1.18a10,10,0,0,1-3.38.58c-3.1-.2-6.19-.62-9.28-.92-.64-.06-1.35-.12-1.2-.9.06-.33.81-.73,1.26-.74,1.38,0,2.76.1,4.25.17l-.47-1.32.18-.35c.83.38,1.68.73,2.5,1.14a6.25,6.25,0,0,0,3.18-.23A21.77,21.77,0,0,0,419.3,123a1.33,1.33,0,0,0,.08-.8c-.07-.74-.18-1.48-.27-2.22Z"/><path d="M431.89,125.7a3.69,3.69,0,0,1-4.08,2.23,29.94,29.94,0,0,0-3.9,0c-.15-1.29.32-1.85,1.53-1.68a4.71,4.71,0,0,1,.83,0A6.48,6.48,0,0,0,431.89,125.7Z"/><path d="M234.86,61.34h2.64c.1,1.42.29,2.8.27,4.17a3.18,3.18,0,0,1-2.11,3c-1,.42-1.73-.31-2.5-1a6,6,0,0,1-2-3.32,12.57,12.57,0,0,0-1.39-2.57l4,1.31-.13,2,1.83-1.32Z"/><path d="M254.63,39l1-.91a7.83,7.83,0,0,0,1.44,1.46,5.5,5.5,0,0,0,1.71.39,2.41,2.41,0,0,0,.09.7,19.14,19.14,0,0,1,1.17,2.77c.12.5-.31,1.13-.55,1.87l-3.25-2.11,1-1.47-.46.49Z"/><path d="M226.47,59.56l3.89,4.68C226.54,63.49,225.14,61.36,226.47,59.56Z"/><path d="M232.38,72.77c1.55-.83,3.47,1.26,3.58,4C234.42,75.65,232.89,74.69,232.38,72.77Z"/><path d="M232.22,53.72a26.11,26.11,0,0,1-3-.88c-.35-.14-.51-.73-.75-1.12.42-.2.87-.61,1.24-.55A3.15,3.15,0,0,1,232.22,53.72Z"/><path d="M303.56,97.59V99c-.77,0-1.56-.05-2.34,0q-2.2.19-4.39.49c-.66.09-1.39,0-1.39-.65a1.7,1.7,0,0,1,1.14-1.22C298.88,97.52,301.2,97.59,303.56,97.59Z"/><path d="M292.29,113.76c.13-1.5.55-2.05,1.66-2,2.14.18,4.26.47,6.45.72a3,3,0,0,1-3.1,1.48C295.63,114,294,113.85,292.29,113.76Z"/><path d="M306,102.15c-.23,0-.46.06-.69.06h-7.79c.76-1.67,1-1.7,2.71-1.55a21.2,21.2,0,0,0,4.14-.11C305.62,100.42,306,100.72,306,102.15Z"/><path d="M173.86,66.13c.08.59.24,1,.12,1.1-1,1.34-2,2.65-3.11,3.92-.09.1-.82-.1-.87-.27a1.37,1.37,0,0,1,.15-1.14C171.27,68.57,172.47,67.46,173.86,66.13Z"/><path d="M174.35,65.73c0-1.93,2.63-4.42,4.07-4.3Z"/></g></g></svg>