<?xml version="1.0" encoding="utf-8"?>
<!-- Generator: Adobe Illustrator 21.1.0, SVG Export Plug-In . SVG Version: 6.00 Build 0)  -->
<svg version="1.1" id="Layer_1" xmlns="http://www.w3.org/2000/svg" xmlns:xlink="http://www.w3.org/1999/xlink" x="0px" y="0px"
	 viewBox="0 0 24 30" style="enable-background:new 0 0 24 30;" xml:space="preserve">
<g id="Icon">
	<g>
		<path d="M13.8,25.7L13.8,25.7c-0.1-0.3-0.1-0.3-0.2-0.6c-0.1-0.3-0.3-0.3-0.5-0.4c-0.1-0.1-0.2-0.2-0.3-0.4l2.7-0.4L13,23.5
			c0,0,0,0,0,0c0.2-0.1,0.2-0.4,0.3-0.7c0.1-0.2,0.5-0.2,0.8-0.4c0.2-0.2,0.2-0.6,0.2-0.6c-0.2,0.3-0.2,0.3-0.4,0.4
			c-0.2,0.1-0.3,0.1-0.6,0.2s-0.3,0.3-0.4,0.5c-0.1,0.1-0.2,0.2-0.3,0.2l-0.4-2.7L11.7,23c0,0-0.1-0.1-0.1-0.1
			c-0.1-0.2-0.4-0.2-0.7-0.3c-0.2-0.1-0.2-0.5-0.4-0.8c-0.2-0.2-0.6-0.2-0.6-0.2c0.3,0.2,0.3,0.2,0.4,0.4c0.1,0.2,0.1,0.3,0.2,0.6
			c0.1,0.3,0.3,0.3,0.5,0.4c0.1,0.1,0.2,0.2,0.3,0.4l-2.7,0.4l2.5,0.5c-0.1,0.2-0.1,0.4-0.2,0.6c-0.1,0.2-0.5,0.2-0.8,0.4
			c-0.2,0.2-0.2,0.6-0.2,0.6c0.2-0.3,0.2-0.3,0.4-0.4c0.2-0.1,0.3-0.1,0.6-0.2c0.3-0.1,0.3-0.3,0.4-0.5c0.1-0.1,0.1-0.1,0.2-0.2
			l0.5,2.6l0.4-2.6c0,0,0.1,0.1,0.1,0.1c0.1,0.2,0.4,0.2,0.7,0.3c0.2,0.1,0.2,0.5,0.4,0.8c0.2,0.2,0.6,0.2,0.6,0.2
			C14,26,13.9,25.9,13.8,25.7z M12.5,24.4c-0.1,0.1-0.2,0.2-0.4,0.2c-0.2,0-0.3,0-0.5-0.2c-0.2-0.2-0.2-0.6,0-0.8
			c0.1-0.1,0.1-0.1,0.2-0.1c0.2-0.1,0.4,0,0.6,0.1l0,0C12.7,23.8,12.7,24.1,12.5,24.4z"/>
		<path d="M11.8,24.2L11.8,24.2c-0.2-0.2-0.2-0.4,0-0.6c0.2-0.2,0.4-0.2,0.6,0c0.2,0.2,0.2,0.4,0,0.6C12.2,24.4,11.9,24.4,11.8,24.2
			"/>
		<path d="M12.1,9c-3.5,0-6.3,2.9-6.3,6.6c0,2.6,1.4,4.8,3.5,5.9c-1.4-1-2.3-2.7-2.3-4.7c0-3.1,2.3-5.6,5.2-5.6s5.2,2.5,5.2,5.6
			c0,1.9-0.8,3.5-2.1,4.5c1.9-1.1,3.2-3.3,3.2-5.7C18.4,11.9,15.5,9,12.1,9"/>
	</g>
</g>
<path d="M18,6c0-3.3-2.7-6-6-6S6,2.7,6,6H0v24h24V6H18z M12,2c2.2,0,4,1.8,4,4H8C8,3.8,9.8,2,12,2z M22.2,28.2H1.8V8h20.3V28.2z"/>
</svg>
